<?xml version="1.0" encoding="UTF-8"?>
<svg version="1.1" xmlns="http://www.w3.org/2000/svg" width="225" height="225">
<path d="M0 0 C0.99 0.33 1.98 0.66 3 1 C3 1.66 3 2.32 3 3 C3.66 3 4.32 3 5 3 C5.226875 3.61875 5.45375 4.2375 5.6875 4.875 C6.83502307 7.22658694 6.83502307 7.22658694 9.4375 7.875 C12 9 12 9 13.625 11.43359375 C15.4182217 16.08476252 15.48734396 20.24509564 15.5625 25.1875 C15.59695618 26.97284084 15.63957311 28.75804789 15.69140625 30.54296875 C15.70989624 31.7189563 15.70989624 31.7189563 15.72875977 32.91870117 C15.88361417 35.30482137 15.88361417 35.30482137 18 38 C18.845625 37.79375 19.69125 37.5875 20.5625 37.375 C24.53560946 36.94156988 27.24624618 37.7237237 31 39 C31 39.99 31 40.98 31 42 C29.02 42 27.04 42 25 42 C24.67 43.65 24.34 45.3 24 47 C24.804375 46.814375 25.60875 46.62875 26.4375 46.4375 C27.283125 46.293125 28.12875 46.14875 29 46 C29.33 46.33 29.66 46.66 30 47 C33.07558863 47.07247337 36.13915403 46.99615439 39.21484375 46.9375 C42 47 42 47 44 48 C44 47.34 44 46.68 44 46 C44.99 46 45.98 46 47 46 C47.185625 44.329375 47.185625 44.329375 47.375 42.625 C48 39 48 39 50 37 C52.625 37.375 52.625 37.375 55 38 C57 43.75 57 43.75 57 46 C57.99 46.33 58.98 46.66 60 47 C60.2165625 48.08474609 60.2165625 48.08474609 60.4375 49.19140625 C60.78562358 50.92960665 61.13878462 52.66681671 61.5 54.40234375 C62.79097434 60.94798708 63.36135896 67.36671249 63.65625 74.03125 C63.79282422 77.18249473 63.79282422 77.18249473 66 80 C66 81.32 66 82.64 66 84 C66.61875 83.814375 67.2375 83.62875 67.875 83.4375 C70 83 70 83 72 84 C72.12375 84.969375 72.2475 85.93875 72.375 86.9375 C72.58125 87.948125 72.7875 88.95875 73 90 C74.91666667 91.16666667 74.91666667 91.16666667 77 92 C77.33 92.680625 77.66 93.36125 78 94.0625 C78.33 94.701875 78.66 95.34125 79 96 C80.90178785 96.60061233 80.90178785 96.60061233 83 97 C85.25 98.375 85.25 98.375 87 100 C87 100.99 87 101.98 87 103 C89.31 103.99 91.62 104.98 94 106 C94 106.66 94 107.32 94 108 C96.31 108 98.62 108 101 108 C101 109.98 101 111.96 101 114 C99.63875 114.4021875 99.63875 114.4021875 98.25 114.8125 C95.24164622 115.91170619 93.49641383 117.08608273 91 119 C89.0625 119.5625 89.0625 119.5625 87 120 C85.8553125 120.495 85.8553125 120.495 84.6875 121 C82 122 82 122 78.25 122.5 C77.1775 122.665 76.105 122.83 75 123 C74.67 123.66 74.34 124.32 74 125 C73.01 125 72.02 125 71 125 C71 125.99 71 126.98 71 128 C68.38058783 129.74627478 66.96175123 130.38722388 64 131 C64 131.99 64 132.98 64 134 C62.39679026 134.19551338 60.79237014 134.38111983 59.1875 134.5625 C58.29417969 134.66691406 57.40085938 134.77132812 56.48046875 134.87890625 C54 135 54 135 51 134 C50.67 135.32 50.34 136.64 50 138 C47.69 138 45.38 138 43 138 C43.0309375 139.423125 43.0309375 139.423125 43.0625 140.875 C43 144 43 144 42 146 C40.68 145.67 39.36 145.34 38 145 C38.33 146.98 38.66 148.96 39 151 C38.01 151 37.02 151 36 151 C36 152.32 36 153.64 36 155 C35.01 155 34.02 155 33 155 C33 156.32 33 157.64 33 159 C31.02 159 29.04 159 27 159 C27 157.68 27 156.36 27 155 C26.01 154.67 25.02 154.34 24 154 C22.33510818 157.92438786 21.12795963 161.89100419 20 166 C19.34 166 18.68 166 18 166 C18 166.99 18 167.98 18 169 C17.195625 169.2475 16.39125 169.495 15.5625 169.75 C12.828919 170.72238859 12.828919 170.72238859 12.1875 173.125 C12.125625 173.74375 12.06375 174.3625 12 175 C11.34 175 10.68 175 10 175 C10.350625 175.70125 10.70125 176.4025 11.0625 177.125 C12.72036836 182.20912963 10.99990144 186.25023408 9 191 C8.835 191.70125 8.67 192.4025 8.5 193.125 C8 195 8 195 6 198 C2.72933893 198.96633168 0.20292471 199.01989458 -3.1875 198.6875 C-6.61822558 196.62906465 -6.5990799 195.75084341 -7.5625 192 C-7.7790625 191.09636719 -7.995625 190.19273437 -8.21875 189.26171875 C-8.4765625 188.51535156 -8.734375 187.76898438 -9 187 C-11.50447516 185.78130071 -11.50447516 185.78130071 -14 185 C-15.51648388 181.10047002 -16 178.1914598 -16 174 C-16.66 174 -17.32 174 -18 174 C-19.47075246 169.58774263 -20.36884358 166.51718381 -19 162 C-19.99 161.67 -20.98 161.34 -22 161 C-22.144375 161.804375 -22.28875 162.60875 -22.4375 163.4375 C-23 166 -23 166 -24 167 C-26.4375 167.25 -26.4375 167.25 -29 167 C-30.33333333 165 -31.66666667 163 -33 161 C-32.67 160.34 -32.34 159.68 -32 159 C-32.99 158.67 -33.98 158.34 -35 158 C-35 156.35 -35 154.7 -35 153 C-35.99 153 -36.98 153 -38 153 C-38.33 149.37 -38.66 145.74 -39 142 C-41.31 141.67 -43.62 141.34 -46 141 C-46 140.01 -46 139.02 -46 138 C-46.77085938 138.03480469 -47.54171875 138.06960937 -48.3359375 138.10546875 C-49.33882812 138.13253906 -50.34171875 138.15960938 -51.375 138.1875 C-52.37273438 138.22230469 -53.37046875 138.25710937 -54.3984375 138.29296875 C-55.25695313 138.19628906 -56.11546875 138.09960938 -57 138 C-57.66 137.01 -58.32 136.02 -59 135 C-59.99 134.67 -60.98 134.34 -62 134 C-62 133.01 -62 132.02 -62 131 C-63.32 130.67 -64.64 130.34 -66 130 C-66 129.34 -66 128.68 -66 128 C-66.99 127.67 -67.98 127.34 -69 127 C-69.33 126.01 -69.66 125.02 -70 124 C-71.7634375 123.9071875 -71.7634375 123.9071875 -73.5625 123.8125 C-80.66707832 123.06105422 -87.31133204 120.38818052 -94 118 C-94 117.01 -94 116.02 -94 115 C-97.96 114.505 -97.96 114.505 -102 114 C-101.67 112.35 -101.34 110.7 -101 109 C-98.69 109 -96.38 109 -94 109 C-94 107.35 -94 105.7 -94 104 C-93.360625 103.87625 -92.72125 103.7525 -92.0625 103.625 C-91.0415625 103.315625 -91.0415625 103.315625 -90 103 C-89.505 102.01 -89.505 102.01 -89 101 C-87.68 101 -86.36 101 -85 101 C-85 99.35 -85 97.7 -85 96 C-84.236875 95.896875 -83.47375 95.79375 -82.6875 95.6875 C-79.74498796 94.93476436 -78.83367046 94.3575763 -77 92 C-76.5359375 91.01 -76.5359375 91.01 -76.0625 90 C-75 88 -75 88 -72.9375 86.5 C-70.6834192 84.75490519 -70.38148486 83.76576527 -70 81 C-67.525 80.505 -67.525 80.505 -65 80 C-62.72635214 74.38722914 -62.3886907 68.84641085 -61.9375 62.875 C-61.78280576 60.91383498 -61.62536089 58.95288451 -61.46484375 56.9921875 C-61.399021 56.12964355 -61.33319824 55.26709961 -61.26538086 54.37841797 C-61.01786724 52.16013124 -60.58878851 50.14895498 -60 48 C-59.566875 46.1746875 -59.566875 46.1746875 -59.125 44.3125 C-58.75375 43.219375 -58.3825 42.12625 -58 41 C-57.01 40.67 -56.02 40.34 -55 40 C-55 38.02 -55 36.04 -55 34 C-54.360625 33.773125 -53.72125 33.54625 -53.0625 33.3125 C-50.76123042 32.16123555 -50.76123042 32.16123555 -50.25 29.5625 C-49.95145002 26.93147372 -49.95145002 26.93147372 -50 24 C-49.01 24.33 -48.02 24.66 -47 25 C-47 25.99 -47 26.98 -47 28 C-46.525625 28.4125 -46.05125 28.825 -45.5625 29.25 C-43.24275673 31.84811246 -43.43796033 34.62144889 -43 38 C-42.01 38.495 -42.01 38.495 -41 39 C-40.375 41.0625 -40.375 41.0625 -40 43 C-40.66 43 -41.32 43 -42 43 C-42 45.31 -42 47.62 -42 50 C-40.02 49.505 -40.02 49.505 -38 49 C-38 48.01 -38 47.02 -38 46 C-36.02 45.67 -34.04 45.34 -32 45 C-31.67 45.99 -31.34 46.98 -31 48 C-30.34 48 -29.68 48 -29 48 C-29 49.32 -29 50.64 -29 52 C-27.08533633 51.87822312 -27.08533633 51.87822312 -25 51 C-22.25045866 47.27805989 -21.61532963 44.4526788 -21.4375 39.875 C-21.20863787 34.31295681 -21.20863787 34.31295681 -19 31 C-18.01 30.67 -17.02 30.34 -16 30 C-16.020625 28.88625 -16.04125 27.7725 -16.0625 26.625 C-16 23 -16 23 -15 21 C-14.34 21 -13.68 21 -13 21 C-13.05220703 19.46279297 -13.05220703 19.46279297 -13.10546875 17.89453125 C-13.13362035 16.53387064 -13.16091904 15.1731922 -13.1875 13.8125 C-13.21263672 13.13896484 -13.23777344 12.46542969 -13.26367188 11.77148438 C-13.32907182 7.30248803 -12.75630065 4.54381512 -10 1 C-6.85658007 -0.57170996 -3.44228549 -0.23175783 0 0 Z M-46 36 C-45 38 -45 38 -45 38 Z M-51 37 C-50.67 37.99 -50.34 38.98 -50 40 C-49.34 39.67 -48.68 39.34 -48 39 C-48.99 38.34 -49.98 37.68 -51 37 Z M20 41 C21 43 21 43 21 43 Z M-53 47 C-54.10844919 50.32534757 -53.84454356 52.62182575 -53 56 C-52.01 55.67 -51.02 55.34 -50 55 C-50 52.36 -50 49.72 -50 47 C-50.99 47 -51.98 47 -53 47 Z M25 50 C25.33 51.32 25.66 52.64 26 54 C26.33 53.01 26.66 52.02 27 51 C26.34 50.67 25.68 50.34 25 50 Z M29 50 C29 55.40242057 29.41209106 56.30656433 33 60 C33.66 60 34.32 60 35 60 C34.67 61.32 34.34 62.64 34 64 C36.31 64.66 38.62 65.32 41 66 C43.08177665 62.87733503 43.33399027 61.62145446 43.625 58 C43.69976562 57.13375 43.77453125 56.2675 43.8515625 55.375 C43.96336621 53.58614071 44 51.79234975 44 50 C39.05 50 34.1 50 29 50 Z M-34 73 C-34.33 73.66 -34.66 74.32 -35 75 C-36.65 74.67 -38.3 74.34 -40 74 C-40 76.64 -40 79.28 -40 82 C-36.63458162 83.08174162 -35.70152678 82.92538169 -32 82 C-32 79.03 -32 76.06 -32 73 C-32.66 73 -33.32 73 -34 73 Z M35 75 C35 77.97 35 80.94 35 84 C37.31 84 39.62 84 42 84 C42.33 81.03 42.66 78.06 43 75 C39.71303767 74.20046862 38.28976808 73.90341064 35 75 Z M-3 81 C-3 84.96 -3 88.92 -3 93 C-0.03 93 2.94 93 6 93 C6.02687279 91.18757948 6.04633715 89.37504767 6.0625 87.5625 C6.07410156 86.55316406 6.08570312 85.54382813 6.09765625 84.50390625 C6.28612676 82.05978933 6.28612676 82.05978933 5 81 C2.32941149 80.85884839 -0.32432238 80.95752893 -3 81 Z " fill="#0B0909" transform="translate(113,13)"/>
<path d="M0 0 C0.33 0 0.66 0 1 0 C1.04898438 0.90363281 1.09796875 1.80726562 1.1484375 2.73828125 C1.26058594 4.50751953 1.26058594 4.50751953 1.375 6.3125 C1.47941406 8.07013672 1.47941406 8.07013672 1.5859375 9.86328125 C1.78613747 13.15699887 1.78613747 13.15699887 4 16 C4.845625 15.79375 5.69125 15.5875 6.5625 15.375 C10.53560946 14.94156988 13.24624618 15.7237237 17 17 C17 17.99 17 18.98 17 20 C15.02 20 13.04 20 11 20 C10.505 22.475 10.505 22.475 10 25 C10.804375 24.814375 11.60875 24.62875 12.4375 24.4375 C13.7059375 24.2209375 13.7059375 24.2209375 15 24 C15.33 24.33 15.66 24.66 16 25 C19.07558863 25.07247337 22.13915403 24.99615439 25.21484375 24.9375 C28 25 28 25 30 26 C30 25.34 30 24.68 30 24 C30.99 24 31.98 24 33 24 C33.185625 22.329375 33.185625 22.329375 33.375 20.625 C34 17 34 17 36 15 C38.625 15.375 38.625 15.375 41 16 C43 21.75 43 21.75 43 24 C44.485 24.495 44.485 24.495 46 25 C46.2165625 26.08474609 46.2165625 26.08474609 46.4375 27.19140625 C46.78562358 28.92960665 47.13878462 30.66681671 47.5 32.40234375 C48.79097434 38.94798708 49.36135896 45.36671249 49.65625 52.03125 C49.79282422 55.18249473 49.79282422 55.18249473 52 58 C52 59.32 52 60.64 52 62 C52.61875 61.814375 53.2375 61.62875 53.875 61.4375 C56 61 56 61 58 62 C58.12375 62.969375 58.2475 63.93875 58.375 64.9375 C58.58125 65.948125 58.7875 66.95875 59 68 C60.91666667 69.16666667 60.91666667 69.16666667 63 70 C63.33 70.680625 63.66 71.36125 64 72.0625 C64.33 72.701875 64.66 73.34125 65 74 C66.90178785 74.60061233 66.90178785 74.60061233 69 75 C71.25 76.375 71.25 76.375 73 78 C73 78.99 73 79.98 73 81 C75.31 81.99 77.62 82.98 80 84 C80 84.66 80 85.32 80 86 C82.31 86 84.62 86 87 86 C87 87.98 87 89.96 87 92 C85.63875 92.4021875 85.63875 92.4021875 84.25 92.8125 C81.24164622 93.91170619 79.49641383 95.08608273 77 97 C75.0625 97.5625 75.0625 97.5625 73 98 C71.8553125 98.495 71.8553125 98.495 70.6875 99 C68 100 68 100 64.25 100.5 C63.1775 100.665 62.105 100.83 61 101 C60.67 101.66 60.34 102.32 60 103 C59.01 103 58.02 103 57 103 C57 103.99 57 104.98 57 106 C54.38058783 107.74627478 52.96175123 108.38722388 50 109 C50 109.99 50 110.98 50 112 C45.05 112.495 45.05 112.495 40 113 C40 112.34 40 111.68 40 111 C42.97 111 45.94 111 49 111 C49 110.01 49 109.02 49 108 C47.02 107.01 47.02 107.01 45 106 C46.65 106 48.3 106 50 106 C50 105.01 50 104.02 50 103 C37.65354984 102.47021813 37.65354984 102.47021813 26.4375 106.75 C23.83765167 108.3587714 22.64564305 109.07185382 19.578125 108.73046875 C17.27174025 107.96544243 15.16971016 107.09107796 13 106 C12.25363281 105.63003906 11.50726563 105.26007813 10.73828125 104.87890625 C10.16464844 104.58886719 9.59101563 104.29882812 9 104 C11.30715573 109.42587377 13.24050486 113.14562514 18.8125 115.5625 C20.19791225 116.07101184 21.59100771 116.5610329 23 117 C19.59440809 118.1351973 18.0764046 117.75443974 14.8515625 116.29296875 C11.22581468 113.76106468 9.008461 109.87713899 7 106 C7 105.34 7 104.68 7 104 C2.38 104.33 -2.24 104.66 -7 105 C-9.57228245 110.37605151 -9.57228245 110.37605151 -8.1015625 112.828125 C-7.61429687 113.29734375 -7.12703125 113.7665625 -6.625 114.25 C-4 117 -4 117 -4 119 C-2.989375 118.67 -1.97875 118.34 -0.9375 118 C2.78175827 116.94382118 6.12221994 116.70170923 10 117 C13 119 13 119 13.73046875 121.1640625 C13.95669922 122.38222656 13.95669922 122.38222656 14.1875 123.625 C14.34605469 124.44226563 14.50460938 125.25953125 14.66796875 126.1015625 C14.77753906 126.72804688 14.88710937 127.35453125 15 128 C12.98863724 125.44008376 11.37154504 122.95409701 10 120 C7.66705225 119.95758277 5.33297433 119.95907063 3 120 C2.67 120.33 2.34 120.66 2 121 C-0.6875 121.4375 -0.6875 121.4375 -4 121 C-5.70727575 119.52343719 -7.09556653 117.97416712 -8.5078125 116.21484375 C-9.24644531 115.61349609 -9.24644531 115.61349609 -10 115 C-12.15674379 115.23390606 -12.15674379 115.23390606 -14 116 C-13.53659219 120.34814558 -13.0663337 124.68140899 -12.375 129 C-12.189375 130.485 -12.189375 130.485 -12 132 C-12.33 132.33 -12.66 132.66 -13 133 C-13.0883967 135.3756852 -13.11530305 137.72208674 -13.09765625 140.09765625 C-13.09553383 141.16094398 -13.09553383 141.16094398 -13.09336853 142.24571228 C-13.08775443 144.51801712 -13.07519963 146.79022475 -13.0625 149.0625 C-13.05748681 150.59960796 -13.05292359 152.13671745 -13.04882812 153.67382812 C-13.03778042 157.44925642 -13.02050641 161.22461171 -13 165 C-13.33 165 -13.66 165 -14 165 C-16.00850548 153.2239411 -17.48935965 141.96212487 -17 130 C-16.34 130 -15.68 130 -15 130 C-15.309375 129.360625 -15.61875 128.72125 -15.9375 128.0625 C-17.32062716 124.07583935 -18.21363085 120.24096803 -18 116 C-16.1875 113.4375 -16.1875 113.4375 -14 112 C-13.34 112 -12.68 112 -12 112 C-11.855625 111.236875 -11.71125 110.47375 -11.5625 109.6875 C-11 107 -11 107 -10 104 C-15.49232375 104.34327023 -18.71223328 105.7708367 -23.203125 108.94140625 C-25 110 -25 110 -28 110 C-27.484375 111.19625 -26.96875 112.3925 -26.4375 113.625 C-25.00243439 117.58356261 -24.5019571 119.92199434 -26 124 C-29.00930028 128.62787955 -31.77721757 132.83248764 -37 135 C-36.50628906 134.28714844 -36.01257813 133.57429687 -35.50390625 132.83984375 C-30.47935492 125.50700074 -30.47935492 125.50700074 -29 117 C-29.33 115.35 -29.66 113.7 -30 112 C-36.435 112.495 -36.435 112.495 -43 113 C-43.33 113.99 -43.66 114.98 -44 116 C-44.495 115.01 -44.495 115.01 -45 114 C-43 111 -43 111 -40.7578125 110.26953125 C-39.88898438 110.11871094 -39.02015625 109.96789062 -38.125 109.8125 C-37.26132813 109.65394531 -36.39765625 109.49539062 -35.5078125 109.33203125 C-33 109 -33 109 -29 109 C-29 108.34 -29 107.68 -29 107 C-29.59167969 107.02320313 -30.18335938 107.04640625 -30.79296875 107.0703125 C-35.46189082 107.17694367 -38.66682802 106.85707371 -43 105 C-45.69304405 105.23762153 -46.65802841 105.62953078 -48.5 107.625 C-50 109 -50 109 -51.875 108.9375 C-54 108 -54 108 -56.11328125 105.98828125 C-59.9098621 103.37331555 -62.80759181 103.33856835 -67.3125 103.25 C-68.05306641 103.22035156 -68.79363281 103.19070312 -69.55664062 103.16015625 C-71.37052046 103.08994155 -73.18526278 103.04264952 -75 103 C-72 101 -72 101 -70 100 C-69.67 99.01 -69.34 98.02 -69 97 C-69.639375 96.896875 -70.27875 96.79375 -70.9375 96.6875 C-71.618125 96.460625 -72.29875 96.23375 -73 96 C-74.07427471 92.77717587 -74.1332963 90.38488847 -74.125 87 C-74.12757812 85.948125 -74.13015625 84.89625 -74.1328125 83.8125 C-74 81 -74 81 -73 78 C-69.55063087 75.47930717 -66.14222569 75.63015842 -62 76 C-59.796875 77.0703125 -59.796875 77.0703125 -58 79 C-57.609375 82.35546875 -57.609375 82.35546875 -57.75 86.1875 C-57.78609375 87.45980469 -57.8221875 88.73210937 -57.859375 90.04296875 C-57.90578125 91.01878906 -57.9521875 91.99460937 -58 93 C-56.02 93 -54.04 93 -52 93 C-52.44832963 90.48935405 -52.87411692 89.14602438 -54.5625 87.1875 C-56.96446252 83.53233964 -56.35204451 79.716217 -55.5 75.5625 C-55.335 75.046875 -55.17 74.53125 -55 74 C-54.34 74 -53.68 74 -53 74 C-53 73.34 -53 72.68 -53 72 C-53.66 71.67 -54.32 71.34 -55 71 C-36.685 71.495 -36.685 71.495 -18 72 C-18.33 71.01 -18.66 70.02 -19 69 C-19.11740122 67.315429 -19.17506545 65.62611123 -19.1875 63.9375 C-19.20167969 63.05964844 -19.21585938 62.18179688 -19.23046875 61.27734375 C-19 59 -19 59 -17 57 C-13.25131724 56.58347969 -10.88266999 56.5020836 -7.5625 58.375 C-6 61 -6 61 -6 71 C1.92 70.67 9.84 70.34 18 70 C17.67 68.68 17.34 67.36 17 66 C17.33 66.66 17.66 67.32 18 68 C19.32 67.67 20.64 67.34 22 67 C22 66.01 22 65.02 22 64 C21.34 64 20.68 64 20 64 C20 60.04 20 56.08 20 52 C21.32 51.34 22.64 50.68 24 50 C24.495 49.01 24.495 49.01 25 48 C25.66 48 26.32 48 27 48 C27.33 47.01 27.66 46.02 28 45 C25.36 45 22.72 45 20 45 C20.33 44.01 20.66 43.02 21 42 C22.98 42.33 24.96 42.66 27 43 C28.76630568 38.4738417 29.09295811 34.83382155 29 30 C29.33 29.34 29.66 28.68 30 28 C29.34 28.33 28.68 28.66 28 29 C25.95944995 29.07065617 23.91665743 29.08421976 21.875 29.0625 C20.77929688 29.05347656 19.68359375 29.04445313 18.5546875 29.03515625 C17.71164063 29.02355469 16.86859375 29.01195313 16 29 C16.61449997 32.33822957 17.34560829 35.02209492 19 38 C19.66 38 20.32 38 21 38 C21 38.99 21 39.98 21 41 C19 40 19 40 18 37 C17.34 37 16.68 37 16 37 C15.34 36.01 14.68 35.02 14 34 C11.41619823 33.74969023 11.41619823 33.74969023 9 34 C9 32.35 9 30.7 9 29 C8.36191406 28.76410156 7.72382813 28.52820313 7.06640625 28.28515625 C5 27 5 27 4.27734375 24.87109375 C4.10912109 23.66646484 4.10912109 23.66646484 3.9375 22.4375 C3.65741114 20.04681229 3.65741114 20.04681229 3 18 C1.515 17.505 1.515 17.505 0 17 C0 11.39 0 5.78 0 0 Z M6 19 C7 21 7 21 7 21 Z M11 28 C11.33 29.32 11.66 30.64 12 32 C12.33 31.01 12.66 30.02 13 29 C12.34 28.67 11.68 28.34 11 28 Z M21 53 C21 55.97 21 58.94 21 62 C23.31 62 25.62 62 28 62 C28.33 59.03 28.66 56.06 29 53 C25.71303767 52.20046862 24.28976808 51.90341064 21 53 Z M-17 59 C-17 62.96 -17 66.92 -17 71 C-14.03 71 -11.06 71 -8 71 C-7.97312721 69.18757948 -7.95366285 67.37504767 -7.9375 65.5625 C-7.92589844 64.55316406 -7.91429688 63.54382813 -7.90234375 62.50390625 C-7.71387324 60.05978933 -7.71387324 60.05978933 -9 59 C-11.67058851 58.85884839 -14.32432238 58.95752893 -17 59 Z " fill="#100E0E" transform="translate(127,35)"/>
<path d="M0 0 C13.86 0.66 27.72 1.32 42 2 C41.67 2.66 41.34 3.32 41 4 C38.525 3.505 38.525 3.505 36 3 C36.24363281 4.03253906 36.24363281 4.03253906 36.4921875 5.0859375 C37.97708005 13.60693631 38.05000782 24.54958608 36 33 C31.4585851 36.02760993 26.93846735 35.52402668 21.65625 34.58203125 C19.43185736 34.07544868 17.21487334 33.54663236 15 33 C11.32075016 32.03161858 11.32075016 32.03161858 8 32 C5.53827847 33.792191 5.53827847 33.792191 4 36 C1.50638429 34.79618552 -0.68143083 33.54571278 -3 32 C-5.38677076 31.70547416 -7.78626094 31.5071783 -10.1875 31.375 C-12.09595703 31.26285156 -12.09595703 31.26285156 -14.04296875 31.1484375 C-15.01878906 31.09945312 -15.99460938 31.05046875 -17 31 C-15.515 28.525 -15.515 28.525 -14 26 C-14.639375 25.896875 -15.27875 25.79375 -15.9375 25.6875 C-16.618125 25.460625 -17.29875 25.23375 -18 25 C-19.07427471 21.77717587 -19.1332963 19.38488847 -19.125 16 C-19.12757812 14.948125 -19.13015625 13.89625 -19.1328125 12.8125 C-19 10 -19 10 -18 7 C-14.55063087 4.47930717 -11.14222569 4.63015842 -7 5 C-4.796875 6.0703125 -4.796875 6.0703125 -3 8 C-2.609375 11.35546875 -2.609375 11.35546875 -2.75 15.1875 C-2.78609375 16.45980469 -2.8221875 17.73210937 -2.859375 19.04296875 C-2.92898437 20.50669922 -2.92898437 20.50669922 -3 22 C-1.02 22 0.96 22 3 22 C2.55167037 19.48935405 2.12588308 18.14602438 0.4375 16.1875 C-1.96446252 12.53233964 -1.35204451 8.716217 -0.5 4.5625 C-0.335 4.046875 -0.17 3.53125 0 3 C0.66 3 1.32 3 2 3 C2 2.34 2 1.68 2 1 C1.34 0.67 0.68 0.34 0 0 Z " fill="#0A0F06" transform="translate(72,106)"/>
<path d="M0 0 C3.5625 0.25 3.5625 0.25 6.5625 2.25 C6.98246896 6.60647806 6.69145366 10.86557569 6.5625 15.25 C11.1825 15.25 15.8025 15.25 20.5625 15.25 C19.2425 16.24 17.9225 17.23 16.5625 18.25 C15.9199765 20.31874034 15.9199765 20.31874034 15.5625 22.25 C14.9025 22.58 14.2425 22.91 13.5625 23.25 C13.2325 28.86 12.9025 34.47 12.5625 40.25 C11.9025 40.25 11.2425 40.25 10.5625 40.25 C10.0675 41.24 10.0675 41.24 9.5625 42.25 C9.5625 37.63 9.5625 33.01 9.5625 28.25 C8.9025 28.25 8.2425 28.25 7.5625 28.25 C7.0675 29.735 7.0675 29.735 6.5625 31.25 C4.2525 31.25 1.9425 31.25 -0.4375 31.25 C-0.4375 30.26 -0.4375 29.27 -0.4375 28.25 C0.8825 27.59 2.2025 26.93 3.5625 26.25 C3.0675 24.765 3.0675 24.765 2.5625 23.25 C0.9125 22.92 -0.7375 22.59 -2.4375 22.25 C-2.4375 29.84 -2.4375 37.43 -2.4375 45.25 C4.96731246 44.76668292 4.96731246 44.76668292 12.3684082 44.23144531 C19.08438351 43.87265055 24.09149811 44.70477619 30.27880859 47.37231445 C33.42769488 48.58251824 35.40274384 48.35224052 38.5625 47.25 C39.37332031 46.73953125 40.18414062 46.2290625 41.01953125 45.703125 C46.0295108 43.64831531 50.5832638 43.92778051 55.9375 44.0625 C57.47083984 44.08280273 57.47083984 44.08280273 59.03515625 44.10351562 C61.54482049 44.13869783 64.0533809 44.18792461 66.5625 44.25 C66.5625 44.58 66.5625 44.91 66.5625 45.25 C65.94318604 45.28440186 65.32387207 45.31880371 64.68579102 45.35424805 C61.83031145 45.52591216 58.97819905 45.73148627 56.125 45.9375 C55.15111328 45.99099609 54.17722656 46.04449219 53.17382812 46.09960938 C46.97024383 46.57680817 42.74770273 47.76056039 37.59472656 51.30615234 C34.90862418 52.5536862 33.51952393 52.07832753 30.75 51.1875 C29.33422731 50.58663472 27.93655121 49.94096648 26.5625 49.25 C25.81613281 48.88003906 25.06976563 48.51007813 24.30078125 48.12890625 C23.72714844 47.83886719 23.15351563 47.54882812 22.5625 47.25 C24.86965573 52.67587377 26.80300486 56.39562514 32.375 58.8125 C33.76041225 59.32101184 35.15350771 59.8110329 36.5625 60.25 C33.15690809 61.3851973 31.6389046 61.00443974 28.4140625 59.54296875 C24.78831468 57.01106468 22.570961 53.12713899 20.5625 49.25 C20.5625 48.59 20.5625 47.93 20.5625 47.25 C15.9425 47.58 11.3225 47.91 6.5625 48.25 C3.99021755 53.62605151 3.99021755 53.62605151 5.4609375 56.078125 C5.94820313 56.54734375 6.43546875 57.0165625 6.9375 57.5 C9.5625 60.25 9.5625 60.25 9.5625 62.25 C10.573125 61.92 11.58375 61.59 12.625 61.25 C16.34425827 60.19382118 19.68471994 59.95170923 23.5625 60.25 C26.5625 62.25 26.5625 62.25 27.29296875 64.4140625 C27.51919922 65.63222656 27.51919922 65.63222656 27.75 66.875 C27.90855469 67.69226563 28.06710938 68.50953125 28.23046875 69.3515625 C28.34003906 69.97804688 28.44960937 70.60453125 28.5625 71.25 C26.55113724 68.69008376 24.93404504 66.20409701 23.5625 63.25 C21.22955225 63.20758277 18.89547433 63.20907063 16.5625 63.25 C16.2325 63.58 15.9025 63.91 15.5625 64.25 C12.875 64.6875 12.875 64.6875 9.5625 64.25 C7.85522425 62.77343719 6.46693347 61.22416712 5.0546875 59.46484375 C4.56226562 59.06394531 4.06984375 58.66304687 3.5625 58.25 C1.40575621 58.48390606 1.40575621 58.48390606 -0.4375 59.25 C0.02590781 63.59814558 0.4961663 67.93140899 1.1875 72.25 C1.31125 73.24 1.435 74.23 1.5625 75.25 C1.2325 75.58 0.9025 75.91 0.5625 76.25 C0.4741033 78.6256852 0.44719695 80.97208674 0.46484375 83.34765625 C0.46696617 84.41094398 0.46696617 84.41094398 0.46913147 85.49571228 C0.47474557 87.76801712 0.48730037 90.04022475 0.5 92.3125 C0.50501319 93.84960796 0.50957641 95.38671745 0.51367188 96.92382812 C0.52471958 100.69925642 0.54199359 104.47461171 0.5625 108.25 C0.2325 108.25 -0.0975 108.25 -0.4375 108.25 C-2.44600548 96.4739411 -3.92685965 85.21212487 -3.4375 73.25 C-2.7775 73.25 -2.1175 73.25 -1.4375 73.25 C-1.746875 72.610625 -2.05625 71.97125 -2.375 71.3125 C-3.75812716 67.32583935 -4.65113085 63.49096803 -4.4375 59.25 C-2.625 56.6875 -2.625 56.6875 -0.4375 55.25 C0.2225 55.25 0.8825 55.25 1.5625 55.25 C1.706875 54.486875 1.85125 53.72375 2 52.9375 C2.5625 50.25 2.5625 50.25 3.5625 47.25 C-1.92982375 47.59327023 -5.14973328 49.0208367 -9.640625 52.19140625 C-11.4375 53.25 -11.4375 53.25 -14.4375 53.25 C-13.921875 54.44625 -13.40625 55.6425 -12.875 56.875 C-11.43993439 60.83356261 -10.9394571 63.17199434 -12.4375 67.25 C-15.44680028 71.87787955 -18.21471757 76.08248764 -23.4375 78.25 C-22.94378906 77.53714844 -22.45007813 76.82429688 -21.94140625 76.08984375 C-16.91685492 68.75700074 -16.91685492 68.75700074 -15.4375 60.25 C-15.7675 58.6 -16.0975 56.95 -16.4375 55.25 C-22.8725 55.745 -22.8725 55.745 -29.4375 56.25 C-29.7675 57.24 -30.0975 58.23 -30.4375 59.25 C-30.7675 58.59 -31.0975 57.93 -31.4375 57.25 C-29.4375 54.25 -29.4375 54.25 -27.1953125 53.51953125 C-26.32648438 53.36871094 -25.45765625 53.21789062 -24.5625 53.0625 C-23.69882813 52.90394531 -22.83515625 52.74539062 -21.9453125 52.58203125 C-19.4375 52.25 -19.4375 52.25 -15.4375 52.25 C-15.4375 51.59 -15.4375 50.93 -15.4375 50.25 C-16.02917969 50.27320313 -16.62085938 50.29640625 -17.23046875 50.3203125 C-21.89939082 50.42694367 -25.10432802 50.10707371 -29.4375 48.25 C-32.13054405 48.48762153 -33.09552841 48.87953078 -34.9375 50.875 C-36.4375 52.25 -36.4375 52.25 -38.3125 52.1875 C-40.4375 51.25 -40.4375 51.25 -42.55078125 49.23828125 C-46.3473621 46.62331555 -49.24509181 46.58856835 -53.75 46.5 C-54.49056641 46.47035156 -55.23113281 46.44070312 -55.99414062 46.41015625 C-57.80802046 46.33994155 -59.62276278 46.29264952 -61.4375 46.25 C-61.4375 45.92 -61.4375 45.59 -61.4375 45.25 C-58.7072611 45.1416333 -55.98135457 45.06253306 -53.25 45 C-52.48107422 44.96648437 -51.71214844 44.93296875 -50.91992188 44.8984375 C-46.79139569 44.82756151 -44.93594836 44.92067944 -41.38671875 47.265625 C-40.74347656 47.92046875 -40.10023437 48.5753125 -39.4375 49.25 C-36.96949953 48.09826645 -35.38966435 47.20216435 -33.4375 45.25 C-29.52378886 45.56948662 -25.87078337 46.38543978 -22.0625 47.3125 C-17.15114354 48.4413538 -11.09738195 49.57994098 -6.4375 47.25 C-4.30237712 37.78294574 -5.36939419 26.85291901 -5.4375 17.25 C-12.0375 16.92 -18.6375 16.59 -25.4375 16.25 C-25.4375 15.92 -25.4375 15.59 -25.4375 15.25 C-18.5075 15.25 -11.5775 15.25 -4.4375 15.25 C-4.9325 13.765 -4.9325 13.765 -5.4375 12.25 C-5.55490122 10.565429 -5.61256545 8.87611123 -5.625 7.1875 C-5.63917969 6.30964844 -5.65335938 5.43179688 -5.66796875 4.52734375 C-5.26500331 0.5454988 -3.81682751 0.27758746 0 0 Z M-3.4375 2.25 C-3.4375 6.21 -3.4375 10.17 -3.4375 14.25 C-0.4675 14.25 2.5025 14.25 5.5625 14.25 C5.58937279 12.43757948 5.60883715 10.62504767 5.625 8.8125 C5.63660156 7.80316406 5.64820312 6.79382813 5.66015625 5.75390625 C5.84862676 3.30978933 5.84862676 3.30978933 4.5625 2.25 C1.89191149 2.10884839 -0.76182238 2.20752893 -3.4375 2.25 Z " fill="#8FA87A" transform="translate(113.4375,91.75)"/>
<path d="M0 0 C1.19012695 -0.00193359 1.19012695 -0.00193359 2.40429688 -0.00390625 C3.64083008 0.00189453 3.64083008 0.00189453 4.90234375 0.0078125 C5.73056641 0.00394531 6.55878906 0.00007813 7.41210938 -0.00390625 C8.60030273 -0.00197266 8.60030273 -0.00197266 9.8125 0 C10.89930054 0.00169189 10.89930054 0.00169189 12.00805664 0.00341797 C13.83984375 0.1328125 13.83984375 0.1328125 15.83984375 1.1328125 C15.83984375 1.7928125 15.83984375 2.4528125 15.83984375 3.1328125 C13.52984375 3.4628125 11.21984375 3.7928125 8.83984375 4.1328125 C8.51371094 5.18082031 8.18757813 6.22882813 7.8515625 7.30859375 C7.4106384 8.68765425 6.96920543 10.06655212 6.52734375 11.4453125 C6.31400391 12.13560547 6.10066406 12.82589844 5.88085938 13.53710938 C3.84255826 19.83454714 3.84255826 19.83454714 0.83984375 22.1328125 C0.83984375 21.4728125 0.83984375 20.8128125 0.83984375 20.1328125 C-0.27390625 20.3184375 -1.38765625 20.5040625 -2.53515625 20.6953125 C-6.16015625 21.1328125 -6.16015625 21.1328125 -8.16015625 20.1328125 C-8.16015625 21.4528125 -8.16015625 22.7728125 -8.16015625 24.1328125 C-5.19015625 24.1328125 -2.22015625 24.1328125 0.83984375 24.1328125 C0.83984375 24.7928125 0.83984375 25.4528125 0.83984375 26.1328125 C1.82984375 26.1328125 2.81984375 26.1328125 3.83984375 26.1328125 C3.83984375 25.4728125 3.83984375 24.8128125 3.83984375 24.1328125 C4.49984375 24.1328125 5.15984375 24.1328125 5.83984375 24.1328125 C6.49984375 22.1528125 7.15984375 20.1728125 7.83984375 18.1328125 C10.14984375 18.7928125 12.45984375 19.4528125 14.83984375 20.1328125 C15.33484375 22.1128125 15.33484375 22.1128125 15.83984375 24.1328125 C17.48984375 24.1328125 19.13984375 24.1328125 20.83984375 24.1328125 C20.38609375 23.3490625 19.93234375 22.5653125 19.46484375 21.7578125 C17.76974421 17.97643661 16.9894453 14.55425283 16.26953125 10.5 C15.8786593 8.34665087 15.39563753 6.24872916 14.83984375 4.1328125 C15.76796875 4.41125 15.76796875 4.41125 16.71484375 4.6953125 C18.88144553 5.36967426 18.88144553 5.36967426 20.83984375 4.1328125 C22.96484375 4.5703125 22.96484375 4.5703125 24.83984375 5.1328125 C24.17984375 5.1328125 23.51984375 5.1328125 22.83984375 5.1328125 C21.4166682 10.09059619 21.18966573 15.02211083 21.83984375 20.1328125 C23.61352332 23.49082409 23.61352332 23.49082409 26.83984375 25.1328125 C28.92567663 25.40615754 30.82039186 25.38416536 32.91796875 25.23828125 C34.83984375 25.1328125 34.83984375 25.1328125 37.58984375 25.6953125 C40.03440299 26.17064346 41.50039253 25.91262957 43.83984375 25.1328125 C43.83984375 25.7928125 43.83984375 26.4528125 43.83984375 27.1328125 C41.57882853 28.26332011 40.27941696 28.27033162 37.76953125 28.30859375 C36.95484375 28.33244141 36.14015625 28.35628906 35.30078125 28.38085938 C33.60050135 28.42323795 31.89991137 28.45480317 30.19921875 28.47460938 C24.86801537 28.65426592 21.14073143 29.56468221 16.52954102 32.28808594 C13.70060174 33.7023512 11.78783033 33.03525737 8.83984375 32.1328125 C8.23720703 31.88821289 7.63457031 31.64361328 7.01367188 31.39160156 C0.39885243 28.82952361 -5.69959988 28.78151366 -12.72265625 28.9453125 C-16.49703125 29.0071875 -20.27140625 29.0690625 -24.16015625 29.1328125 C-24.16015625 21.5428125 -24.16015625 13.9528125 -24.16015625 6.1328125 C-22.51015625 6.1328125 -20.86015625 6.1328125 -19.16015625 6.1328125 C-18.50015625 7.4528125 -17.84015625 8.7728125 -17.16015625 10.1328125 C-17.82015625 10.7928125 -18.48015625 11.4528125 -19.16015625 12.1328125 C-20.15015625 12.1328125 -21.14015625 12.1328125 -22.16015625 12.1328125 C-22.16015625 13.1228125 -22.16015625 14.1128125 -22.16015625 15.1328125 C-19.81703495 14.87719927 -17.48172222 14.54010478 -15.16015625 14.1328125 C-14.83015625 13.4728125 -14.50015625 12.8128125 -14.16015625 12.1328125 C-13.50015625 12.1328125 -12.84015625 12.1328125 -12.16015625 12.1328125 C-11.83015625 16.0928125 -11.50015625 20.0528125 -11.16015625 24.1328125 C-10.50015625 24.1328125 -9.84015625 24.1328125 -9.16015625 24.1328125 C-9.19496094 22.92882812 -9.22976562 21.72484375 -9.265625 20.484375 C-9.29375905 18.90886808 -9.32105962 17.33334612 -9.34765625 15.7578125 C-9.38536133 14.56671875 -9.38536133 14.56671875 -9.42382812 13.3515625 C-9.4502003 11.27695102 -9.31502087 9.20180385 -9.16015625 7.1328125 C-8.17015625 6.4728125 -7.18015625 5.8128125 -6.16015625 5.1328125 C-5.83015625 4.1428125 -5.50015625 3.1528125 -5.16015625 2.1328125 C-5.82015625 1.8028125 -6.48015625 1.4728125 -7.16015625 1.1328125 C-4.4303871 0.22288945 -2.80926651 0.00436657 0 0 Z " fill="#070D05" transform="translate(135.16015625,107.8671875)"/>
<path d="M0 0 C0.33 0.66 0.66 1.32 1 2 C1.66 2.33 2.32 2.66 3 3 C1.02 3.99 1.02 3.99 -1 5 C-0.67 6.65 -0.34 8.3 0 10 C0.66 10 1.32 10 2 10 C2 10.66 2 11.32 2 12 C2.66 12 3.32 12 4 12 C3.67 13.65 3.34 15.3 3 17 C2.34 17 1.68 17 1 17 C1 20.96 1 24.92 1 29 C1.66 29 2.32 29 3 29 C3 29.66 3 30.32 3 31 C5.31 30.67 7.62 30.34 10 30 C10 31.32 10 32.64 10 34 C6.7 34 3.4 34 0 34 C-0.33 34.66 -0.66 35.32 -1 36 C0.32 36.33 1.64 36.66 3 37 C3 38.65 3 40.3 3 42 C2.34 41.01 1.68 40.02 1 39 C-1.02132425 38.7944416 -3.04406903 38.59869573 -5.0703125 38.44921875 C-11.24763041 37.50203 -17.13185596 35.09521348 -23 33 C-23 32.01 -23 31.02 -23 30 C-25.64 29.67 -28.28 29.34 -31 29 C-30.67 27.35 -30.34 25.7 -30 24 C-27.69 24 -25.38 24 -23 24 C-23 22.35 -23 20.7 -23 19 C-22.360625 18.87625 -21.72125 18.7525 -21.0625 18.625 C-20.381875 18.41875 -19.70125 18.2125 -19 18 C-18.67 17.34 -18.34 16.68 -18 16 C-16.68 16 -15.36 16 -14 16 C-14 14.35 -14 12.7 -14 11 C-13.236875 10.896875 -12.47375 10.79375 -11.6875 10.6875 C-8.74498796 9.93476436 -7.83367046 9.3575763 -6 7 C-5.690625 6.34 -5.38125 5.68 -5.0625 5 C-3.77782031 2.5817794 -2.2550597 1.50337314 0 0 Z " fill="#171716" transform="translate(42,98)"/>
<path d="M0 0 C-0.33 0.66 -0.66 1.32 -1 2 C-3.475 1.505 -3.475 1.505 -6 1 C-5.75636719 2.03253906 -5.75636719 2.03253906 -5.5078125 3.0859375 C-4.02291995 11.60693631 -3.94999218 22.54958608 -6 31 C-10.05682262 33.70454841 -13.24210884 33.42076588 -18 33 C-21.5625 32 -21.5625 32 -24 31 C-25.125 26.25 -25.125 26.25 -24 24 C-23.7677354 21.28737884 -23.58063765 18.59226874 -23.4375 15.875 C-23.39431641 15.12089844 -23.35113281 14.36679688 -23.30664062 13.58984375 C-23.2005168 11.72678112 -23.09974999 9.86341476 -23 8 C-20.36 7.34 -17.72 6.68 -15 6 C-15 5.01 -15 4.02 -15 3 C-18.96 3 -22.92 3 -27 3 C-27 2.34 -27 1.68 -27 1 C-17.97746114 0.16069406 -9.0598059 -0.12224626 0 0 Z " fill="#060906" transform="translate(114,108)"/>
<path d="M0 0 C3.38632741 0.38700885 4.88984839 0.90865476 7.5625 3.125 C9.76852582 5.23110074 9.76852582 5.23110074 12.125 4.9375 C14.09192652 4.09997848 14.09192652 4.09997848 15.4375 2.375 C16.2109375 1.694375 16.2109375 1.694375 17 1 C18.67889834 1.26493254 20.34475412 1.61393008 22 2 C24.10292246 2.36148102 26.20714561 2.71546356 28.3125 3.0625 C29.38113281 3.23910156 30.44976562 3.41570312 31.55078125 3.59765625 C32.35902344 3.73042969 33.16726562 3.86320313 34 4 C34 4.66 34 5.32 34 6 C33.03578125 6.08894531 32.0715625 6.17789063 31.078125 6.26953125 C27.11085334 6.83223611 23.7129917 7.47694199 20 9 C18.10430161 11.77229697 17.39954526 14.04499529 16.67578125 17.30859375 C15.95318553 20.18644608 14.91483257 21.76866618 13 24 C12.01 23.67 11.02 23.34 10 23 C10 21.02 10 19.04 10 17 C7.69 16.67 5.38 16.34 3 16 C3 15.01 3 14.02 3 13 C2.22914062 13.03480469 1.45828125 13.06960937 0.6640625 13.10546875 C-0.33882812 13.13253906 -1.34171875 13.15960938 -2.375 13.1875 C-3.87160156 13.23970703 -3.87160156 13.23970703 -5.3984375 13.29296875 C-6.25695313 13.19628906 -7.11546875 13.09960938 -8 13 C-8.66 12.01 -9.32 11.02 -10 10 C-10.99 9.67 -11.98 9.34 -13 9 C-13 8.01 -13 7.02 -13 6 C-14.32 5.67 -15.64 5.34 -17 5 C-17 4.34 -17 3.68 -17 3 C-17.66 2.67 -18.32 2.34 -19 2 C-16.625 2.25 -16.625 2.25 -14 3 C-12.6875 5.0625 -12.6875 5.0625 -12 7 C-11.34 7 -10.68 7 -10 7 C-9.67 6.34 -9.34 5.68 -9 5 C-5.6322481 4.06451336 -2.4815554 3.90052699 1 4 C1.33 3.01 1.66 2.02 2 1 C1.34 0.67 0.68 0.34 0 0 Z " fill="#141312" transform="translate(64,138)"/>
<path d="M0 0 C0.79921875 0.00902344 1.5984375 0.01804688 2.421875 0.02734375 C3.02515625 0.03894531 3.6284375 0.05054688 4.25 0.0625 C6.50929642 4.44819304 6.51743504 7.30961862 5.25 12.0625 C3.06332474 16.09943894 0.8181241 19.89850225 -2.90234375 22.66015625 C-5.01650525 23.97127772 -5.01650525 23.97127772 -5.5 26.75 C-5.62375 27.8946875 -5.62375 27.8946875 -5.75 29.0625 C-6.08 28.4025 -6.41 27.7425 -6.75 27.0625 C-8.07 27.3925 -9.39 27.7225 -10.75 28.0625 C-10.75 26.7425 -10.75 25.4225 -10.75 24.0625 C-12.07 24.0625 -13.39 24.0625 -14.75 24.0625 C-14.75 22.4125 -14.75 20.7625 -14.75 19.0625 C-15.74 19.0625 -16.73 19.0625 -17.75 19.0625 C-17.75 17.7425 -17.75 16.4225 -17.75 15.0625 C-17.193125 14.52625 -16.63625 13.99 -16.0625 13.4375 C-13.09765586 10.39252494 -11.7719032 7.07925638 -10.09375 3.20703125 C-8.75 1.0625 -8.75 1.0625 -6.890625 0.265625 C-4.57606264 0.045995 -2.32511838 -0.03419292 0 0 Z " fill="#090A07" transform="translate(92.75,146.9375)"/>
<path d="M0 0 C0.99 0.33 1.98 0.66 3 1 C2.01 2.485 2.01 2.485 1 4 C2.32 4.33 3.64 4.66 5 5 C5.33 4.34 5.66 3.68 6 3 C6.66 3.33 7.32 3.66 8 4 C8 8.95 8 13.9 8 19 C9.32 19.33 10.64 19.66 12 20 C11.625 21.9375 11.625 21.9375 11 24 C10.34 24.33 9.68 24.66 9 25 C9.93972656 25.09087891 9.93972656 25.09087891 10.8984375 25.18359375 C11.71570313 25.26738281 12.53296875 25.35117188 13.375 25.4375 C14.18710937 25.51871094 14.99921875 25.59992188 15.8359375 25.68359375 C18 26 18 26 20 27 C20 27.66 20 28.32 20 29 C20.66 29.33 21.32 29.66 22 30 C13.42857143 31.28571429 13.42857143 31.28571429 10 30 C9.67 30.66 9.34 31.32 9 32 C7.515 32.495 7.515 32.495 6 33 C5.5875 32.360625 5.175 31.72125 4.75 31.0625 C2.82189513 28.79009069 1.88575819 28.39803561 -1 28 C-1 26.35 -1 24.7 -1 23 C-3.97 23 -6.94 23 -10 23 C-10 22.67 -10 22.34 -10 22 C-8.35 22 -6.7 22 -5 22 C-4.67 21.01 -4.34 20.02 -4 19 C-0.7 19.33 2.6 19.66 6 20 C6 18.68 6 17.36 6 16 C3.69 16.33 1.38 16.66 -1 17 C-1 16.34 -1 15.68 -1 15 C-1.66 15 -2.32 15 -3 15 C-3 11.04 -3 7.08 -3 3 C-2.34 3 -1.68 3 -1 3 C-0.67 2.01 -0.34 1.02 0 0 Z " fill="#060906" transform="translate(46,112)"/>
<path d="M0 0 C2.19921875 1.08203125 2.19921875 1.08203125 4 3 C4.42578125 6.25 4.42578125 6.25 4.3125 10 C4.28800781 11.2375 4.26351562 12.475 4.23828125 13.75 C4 17 4 17 3 20 C0.51245214 21.24377393 -1.22655301 21.13306235 -4 21.125 C-4.886875 21.12757813 -5.77375 21.13015625 -6.6875 21.1328125 C-9 21 -9 21 -11 20 C-12.07427471 16.77717587 -12.1332963 14.38488847 -12.125 11 C-12.12757812 9.948125 -12.13015625 8.89625 -12.1328125 7.8125 C-12 5 -12 5 -11 2 C-7.55063087 -0.52069283 -4.14222569 -0.36984158 0 0 Z " fill="#95BA6E" transform="translate(65,111)"/>
<path d="M0 0 C0.79341797 -0.00128906 1.58683594 -0.00257812 2.40429688 -0.00390625 C3.64083008 0.00189453 3.64083008 0.00189453 4.90234375 0.0078125 C5.73056641 0.00394531 6.55878906 0.00007813 7.41210938 -0.00390625 C8.60030273 -0.00197266 8.60030273 -0.00197266 9.8125 0 C10.89930054 0.00169189 10.89930054 0.00169189 12.00805664 0.00341797 C13.83984375 0.1328125 13.83984375 0.1328125 15.83984375 1.1328125 C15.83984375 1.7928125 15.83984375 2.4528125 15.83984375 3.1328125 C13.52984375 3.4628125 11.21984375 3.7928125 8.83984375 4.1328125 C8.51371094 5.18082031 8.18757813 6.22882813 7.8515625 7.30859375 C7.4106384 8.68765425 6.96920543 10.06655212 6.52734375 11.4453125 C6.31400391 12.13560547 6.10066406 12.82589844 5.88085938 13.53710938 C3.84255826 19.83454714 3.84255826 19.83454714 0.83984375 22.1328125 C0.83984375 21.4728125 0.83984375 20.8128125 0.83984375 20.1328125 C-0.27390625 20.3390625 -1.38765625 20.5453125 -2.53515625 20.7578125 C-3.73140625 20.8815625 -4.92765625 21.0053125 -6.16015625 21.1328125 C-8.16015625 19.1328125 -8.16015625 19.1328125 -8.35546875 16.09375 C-8.33226563 14.91039063 -8.3090625 13.72703125 -8.28515625 12.5078125 C-8.26710938 11.31929687 -8.2490625 10.13078125 -8.23046875 8.90625 C-8.20726563 7.99101563 -8.1840625 7.07578125 -8.16015625 6.1328125 C-7.50015625 5.8028125 -6.84015625 5.4728125 -6.16015625 5.1328125 C-5.83015625 4.1428125 -5.50015625 3.1528125 -5.16015625 2.1328125 C-5.82015625 1.8028125 -6.48015625 1.4728125 -7.16015625 1.1328125 C-4.4303871 0.22288945 -2.80926651 0.00436657 0 0 Z " fill="#040602" transform="translate(135.16015625,107.8671875)"/>
<path d="M0 0 C-0.66 2.97 -1.32 5.94 -2 9 C-7.94 9.495 -7.94 9.495 -14 10 C-14.33 10.99 -14.66 11.98 -15 13 C-15.33 12.67 -15.66 12.34 -16 12 C-17.32 12 -18.64 12 -20 12 C-19.67 10.02 -19.34 8.04 -19 6 C-21.35171131 6.59861742 -23.6859378 7.26924352 -26 8 C-26.33 8.66 -26.66 9.32 -27 10 C-28.32 9.34 -29.64 8.68 -31 8 C-31 8.66 -31 9.32 -31 10 C-30.01 10 -29.02 10 -28 10 C-28.33 11.65 -28.66 13.3 -29 15 C-34.19519478 13.59113362 -37.07691272 12.57905934 -40 7.9375 C-42 4.40460526 -42 4.40460526 -42 2 C-40.96875 2.28875 -39.9375 2.5775 -38.875 2.875 C-38.23046875 3.04902344 -37.5859375 3.22304687 -36.921875 3.40234375 C-35 4 -35 4 -32.125 5.4375 C-27.8044021 6.21520762 -26.04029153 4.48285559 -22.41796875 2.25 C-15.81680837 -1.16255464 -7.23187947 -0.10331256 0 0 Z " fill="#0A0C08" transform="translate(178,137)"/>
<path d="M0 0 C3.5390625 0.76171875 3.5390625 0.76171875 5.953125 3.1796875 C7.655809 5.98005927 9.09137036 8.82510273 10.5390625 11.76171875 C11.1990625 12.09171875 11.8590625 12.42171875 12.5390625 12.76171875 C12.5390625 13.42171875 12.5390625 14.08171875 12.5390625 14.76171875 C13.1990625 14.76171875 13.8590625 14.76171875 14.5390625 14.76171875 C14.8690625 16.08171875 15.1990625 17.40171875 15.5390625 18.76171875 C14.2190625 19.09171875 12.8990625 19.42171875 11.5390625 19.76171875 C12.1990625 19.43171875 12.8590625 19.10171875 13.5390625 18.76171875 C13.5390625 18.10171875 13.5390625 17.44171875 13.5390625 16.76171875 C11.5590625 17.75171875 11.5590625 17.75171875 9.5390625 18.76171875 C9.2090625 17.77171875 8.8790625 16.78171875 8.5390625 15.76171875 C3.76074414 13.37255957 -2.38364347 14.93277279 -7.4609375 15.76171875 C-9.73130756 13.23480969 -11.80930723 10.73892931 -13.4609375 7.76171875 C-12.08554495 -0.64345795 -7.63683293 0.02333045 0 0 Z " fill="#0B0C09" transform="translate(130.4609375,138.23828125)"/>
<path d="M0 0 C-1.32 0.33 -2.64 0.66 -4 1 C-4.33 2.98 -4.66 4.96 -5 7 C-4.01 6.67 -3.02 6.34 -2 6 C-1.67 5.34 -1.34 4.68 -1 4 C-0.67 5.65 -0.34 7.3 0 9 C-2.31 9 -4.62 9 -7 9 C-6.979375 9.94875 -6.95875 10.8975 -6.9375 11.875 C-7 15 -7 15 -8 17 C-9.32 16.67 -10.64 16.34 -12 16 C-11.67 17.98 -11.34 19.96 -11 22 C-11.99 22 -12.98 22 -14 22 C-14 23.32 -14 24.64 -14 26 C-14.99 26 -15.98 26 -17 26 C-17 27.32 -17 28.64 -17 30 C-18.98 30 -20.96 30 -23 30 C-22.49396008 27.83125748 -22.00016187 26.00032373 -21 24 C-21.2475 22.6078125 -21.2475 22.6078125 -21.5 21.1875 C-21.99160861 18.05349514 -21.80280246 16.03280928 -21 13 C-20.34 13 -19.68 13 -19 13 C-18.67 13.33 -18.34 13.66 -18 14 C-18 13.01 -18 12.02 -18 11 C-18.66 11 -19.32 11 -20 11 C-19.67 10.34 -19.34 9.68 -19 9 C-17.35 9.33 -15.7 9.66 -14 10 C-13.67 8.35 -13.34 6.7 -13 5 C-13.99 5 -14.98 5 -16 5 C-16 4.34 -16 3.68 -16 3 C-14.68 3.33 -13.36 3.66 -12 4 C-12.33 3.67 -12.66 3.34 -13 3 C-13 2.67 -13 2.34 -13 2 C-4.57142857 -0.28571429 -4.57142857 -0.28571429 0 0 Z " fill="#151614" transform="translate(163,142)"/>
<path d="M0 0 C0.33 0 0.66 0 1 0 C1.04898438 0.90363281 1.09796875 1.80726562 1.1484375 2.73828125 C1.22320312 3.91777344 1.29796875 5.09726562 1.375 6.3125 C1.44460937 7.48425781 1.51421875 8.65601563 1.5859375 9.86328125 C1.78613747 13.15699887 1.78613747 13.15699887 4 16 C4.845625 15.79375 5.69125 15.5875 6.5625 15.375 C10.53560946 14.94156988 13.24624618 15.7237237 17 17 C17 17.99 17 18.98 17 20 C15.02 20 13.04 20 11 20 C10.67 21.65 10.34 23.3 10 25 C10.804375 24.814375 11.60875 24.62875 12.4375 24.4375 C13.7059375 24.2209375 13.7059375 24.2209375 15 24 C15.33 24.33 15.66 24.66 16 25 C19.07558863 25.07247337 22.13915403 24.99615439 25.21484375 24.9375 C28 25 28 25 30 26 C30 25.34 30 24.68 30 24 C30.99 24 31.98 24 33 24 C33.19658808 25.41543415 33.38187546 26.83244031 33.5625 28.25 C33.71912109 29.43335938 33.71912109 29.43335938 33.87890625 30.640625 C34.00027349 33.00532874 33.69633257 34.7511037 33 37 C32.01 37 31.02 37 30 37 C28.875 30.25 28.875 30.25 30 28 C29.34 28.33 28.68 28.66 28 29 C25.95944995 29.07065617 23.91665743 29.08421976 21.875 29.0625 C20.77929688 29.05347656 19.68359375 29.04445313 18.5546875 29.03515625 C17.29011719 29.01775391 17.29011719 29.01775391 16 29 C16.61449997 32.33822957 17.34560829 35.02209492 19 38 C19.66 38 20.32 38 21 38 C21 38.99 21 39.98 21 41 C19 40 19 40 18 37 C17.34 37 16.68 37 16 37 C15.34 36.01 14.68 35.02 14 34 C11.41619823 33.74969023 11.41619823 33.74969023 9 34 C9 32.35 9 30.7 9 29 C8.36191406 28.76410156 7.72382813 28.52820313 7.06640625 28.28515625 C5 27 5 27 4.27734375 24.87109375 C4.16519531 24.06800781 4.05304688 23.26492187 3.9375 22.4375 C3.65741114 20.04681229 3.65741114 20.04681229 3 18 C2.01 17.67 1.02 17.34 0 17 C0 11.39 0 5.78 0 0 Z M6 19 C7 21 7 21 7 21 Z M11 28 C11.33 29.32 11.66 30.64 12 32 C12.33 31.01 12.66 30.02 13 29 C12.34 28.67 11.68 28.34 11 28 Z " fill="#767676" transform="translate(127,35)"/>
<path d="M0 0 C3.5625 0.25 3.5625 0.25 6.5625 2.25 C6.98246896 6.60647806 6.69145366 10.86557569 6.5625 15.25 C11.1825 15.25 15.8025 15.25 20.5625 15.25 C19.2425 16.24 17.9225 17.23 16.5625 18.25 C15.9199765 20.31874034 15.9199765 20.31874034 15.5625 22.25 C14.5725 22.745 14.5725 22.745 13.5625 23.25 C13.2325 28.86 12.9025 34.47 12.5625 40.25 C11.9025 40.25 11.2425 40.25 10.5625 40.25 C10.0675 41.24 10.0675 41.24 9.5625 42.25 C9.5625 37.63 9.5625 33.01 9.5625 28.25 C8.9025 28.25 8.2425 28.25 7.5625 28.25 C7.2325 28.91 6.9025 29.57 6.5625 30.25 C6.5625 26.29 6.5625 22.33 6.5625 18.25 C4.2525 18.25 1.9425 18.25 -0.4375 18.25 C-0.4375 17.92 -0.4375 17.59 -0.4375 17.25 C-8.6875 16.92 -16.9375 16.59 -25.4375 16.25 C-25.4375 15.92 -25.4375 15.59 -25.4375 15.25 C-18.5075 15.25 -11.5775 15.25 -4.4375 15.25 C-4.7675 14.26 -5.0975 13.27 -5.4375 12.25 C-5.55490122 10.565429 -5.61256545 8.87611123 -5.625 7.1875 C-5.63917969 6.30964844 -5.65335938 5.43179688 -5.66796875 4.52734375 C-5.26500331 0.5454988 -3.81682751 0.27758746 0 0 Z M-3.4375 2.25 C-3.4375 6.21 -3.4375 10.17 -3.4375 14.25 C-0.4675 14.25 2.5025 14.25 5.5625 14.25 C5.58937279 12.43757948 5.60883715 10.62504767 5.625 8.8125 C5.63660156 7.80316406 5.64820313 6.79382813 5.66015625 5.75390625 C5.84862676 3.30978933 5.84862676 3.30978933 4.5625 2.25 C1.89191149 2.10884839 -0.76182238 2.20752893 -3.4375 2.25 Z " fill="#8A9188" transform="translate(113.4375,91.75)"/>
<path d="M0 0 C1.98 0 3.96 0 6 0 C7.97715022 4.94287554 9.50105323 9.70689117 10.5703125 14.921875 C10.99260997 16.96425914 11.48139356 18.98016441 12 21 C10.35 21 8.7 21 7 21 C6.79375 20.38125 6.5875 19.7625 6.375 19.125 C4.45224112 16.15346355 2.33405473 15.86975341 -1 15 C-1.144375 15.61875 -1.28875 16.2375 -1.4375 16.875 C-2 19 -2 19 -3 21 C-3.66 21 -4.32 21 -5 21 C-5 21.66 -5 22.32 -5 23 C-5.99 23 -6.98 23 -8 23 C-8 22.34 -8 21.68 -8 21 C-10.97 21 -13.94 21 -17 21 C-17 19.68 -17 18.36 -17 17 C-15.52093108 16.97310784 -14.04172517 16.95365379 -12.5625 16.9375 C-11.73878906 16.92589844 -10.91507813 16.91429688 -10.06640625 16.90234375 C-8 17 -8 17 -7 18 C-6.66226563 17.11957031 -6.32453125 16.23914063 -5.9765625 15.33203125 C-5.53054687 14.17058594 -5.08453125 13.00914063 -4.625 11.8125 C-4.18414062 10.66394531 -3.74328125 9.51539062 -3.2890625 8.33203125 C-2.21147857 5.54664006 -1.1163557 2.77002279 0 0 Z " fill="#8FBA6E" transform="translate(144,111)"/>
<path d="M0 0 C1.65 0 3.3 0 5 0 C5.66 1.32 6.32 2.64 7 4 C6.34 4.66 5.68 5.32 5 6 C4.01 6 3.02 6 2 6 C2 6.99 2 7.98 2 9 C4.3431213 8.74438677 6.67843403 8.40729228 9 8 C9.33 7.34 9.66 6.68 10 6 C10.66 6 11.32 6 12 6 C12.33 9.96 12.66 13.92 13 18 C13.99 18.33 14.98 18.66 16 19 C15.34 20.32 14.68 21.64 14 23 C9.38 23 4.76 23 0 23 C0 15.41 0 7.82 0 0 Z " fill="#080B06" transform="translate(111,114)"/>
<path d="M0 0 C1.134375 0.020625 2.26875 0.04125 3.4375 0.0625 C2.91481534 2.82526177 2.32880413 5.3885876 1.4375 8.0625 C0.591875 8.59875 -0.25375 9.135 -1.125 9.6875 C-3.75327555 11.76655685 -3.75327555 11.76655685 -3.890625 14.3203125 C-3.87641752 16.58640544 -3.77935026 18.80725729 -3.5625 21.0625 C-4.5525 21.3925 -5.5425 21.7225 -6.5625 22.0625 C-7.77132096 24.06266466 -7.77132096 24.06266466 -8.5625 26.0625 C-10.79200991 23.83299009 -10.99851702 22.93201945 -11.6328125 19.9296875 C-11.80683594 19.12402344 -11.98085937 18.31835938 -12.16015625 17.48828125 C-12.33417969 16.64652344 -12.50820312 15.80476562 -12.6875 14.9375 C-12.86925781 14.08800781 -13.05101563 13.23851562 -13.23828125 12.36328125 C-13.68635016 10.26443215 -14.12529337 8.16363866 -14.5625 6.0625 C-13.85222656 5.71316406 -13.14195313 5.36382812 -12.41015625 5.00390625 C-11.49105469 4.54886719 -10.57195312 4.09382812 -9.625 3.625 C-8.25021484 2.94630859 -8.25021484 2.94630859 -6.84765625 2.25390625 C-2.6125 0.04583333 -2.6125 0.04583333 0 0 Z " fill="#080C08" transform="translate(113.5625,138.9375)"/>
<path d="M0 0 C4.29 0 8.58 0 13 0 C12.67 1.98 12.34 3.96 12 6 C9.36 6 6.72 6 4 6 C4 6.66 4 7.32 4 8 C6.64 8 9.28 8 12 8 C12 9.98 12 11.96 12 14 C9.36 14 6.72 14 4 14 C5.18523997 15.60414215 5.18523997 15.60414215 7 17 C9.62570704 17.25069913 9.62570704 17.25069913 12 17 C12.33 18.32 12.66 19.64 13 21 C8.71 21 4.42 21 0 21 C0 14.07 0 7.14 0 0 Z " fill="#8DB06F" transform="translate(171,111)"/>
<path d="M0 0 C1.65 0.33 3.3 0.66 5 1 C7 6.75 7 6.75 7 9 C7.99 9.33 8.98 9.66 10 10 C10.33 12.97 10.66 15.94 11 19 C10.34 18.01 9.68 17.02 9 16 C8.01 17.32 7.02 18.64 6 20 C5.01 19.34 4.02 18.68 3 18 C3 18.66 3 19.32 3 20 C2.34 19.67 1.68 19.34 1 19 C1.33 18.34 1.66 17.68 2 17 C0.68 17 -0.64 17 -2 17 C-3.8382537 13.32349261 -3.37884188 9.02203801 -3 5 C-1.5 1.875 -1.5 1.875 0 0 Z " fill="#252424" transform="translate(163,50)"/>
<path d="M0 0 C3.85770874 1.57165912 5.43070604 1.54989607 9.375 0.375 C10.19097656 -0.13417969 11.00695312 -0.64335937 11.84765625 -1.16796875 C16.84848766 -3.23364994 21.40074229 -2.94709423 26.75 -2.8125 C28.28333984 -2.79219727 28.28333984 -2.79219727 29.84765625 -2.77148438 C32.35732049 -2.73630217 34.8658809 -2.68707539 37.375 -2.625 C37.375 -2.295 37.375 -1.965 37.375 -1.625 C36.75568604 -1.59059814 36.13637207 -1.55619629 35.49829102 -1.52075195 C32.64281145 -1.34908784 29.79069905 -1.14351373 26.9375 -0.9375 C25.96361328 -0.88400391 24.98972656 -0.83050781 23.98632812 -0.77539062 C17.78274383 -0.29819183 13.56020273 0.88556039 8.40722656 4.43115234 C5.72112418 5.6786862 4.33202393 5.20332753 1.5625 4.3125 C0.14672731 3.71163472 -1.25094879 3.06596648 -2.625 2.375 C-3.37136719 2.00503906 -4.11773437 1.63507813 -4.88671875 1.25390625 C-5.46035156 0.96386719 -6.03398437 0.67382812 -6.625 0.375 C-4.31784427 5.80087377 -2.38449514 9.52062514 3.1875 11.9375 C4.57291225 12.44601184 5.96600771 12.9360329 7.375 13.375 C3.96940809 14.5101973 2.4514046 14.12943974 -0.7734375 12.66796875 C-4.39918532 10.13606468 -6.616539 6.25213899 -8.625 2.375 C-8.625 1.715 -8.625 1.055 -8.625 0.375 C-14.565 0.045 -20.505 -0.285 -26.625 -0.625 C-26.625 -0.955 -26.625 -1.285 -26.625 -1.625 C-7.27779299 -3.26245893 -7.27779299 -3.26245893 0 0 Z " fill="#849475" transform="translate(142.625,138.625)"/>
<path d="M0 0 C1.32 0.33 2.64 0.66 4 1 C4 1.66 4 2.32 4 3 C4.66 3 5.32 3 6 3 C6.33 3.99 6.66 4.98 7 6 C7.66 6 8.32 6 9 6 C9 5.01 9 4.02 9 3 C12.17106439 2.91191488 14.99083491 2.92529818 18 4 C18.495 4.99 18.495 4.99 19 6 C15.99179673 7.36736512 13.55655872 8.0591255 10.25 8.5 C9.1775 8.665 8.105 8.83 7 9 C6.67 9.66 6.34 10.32 6 11 C5.01 11 4.02 11 3 11 C3 11.99 3 12.98 3 14 C0.38058783 15.74627478 -1.03824877 16.38722388 -4 17 C-4 17.99 -4 18.98 -4 20 C-8.95 20.495 -8.95 20.495 -14 21 C-14 20.34 -14 19.68 -14 19 C-11.03 19 -8.06 19 -5 19 C-5 18.01 -5 17.02 -5 16 C-6.32 15.34 -7.64 14.68 -9 14 C-7.35 14 -5.7 14 -4 14 C-2.98888907 10.95086772 -2.98888907 10.95086772 -4 8 C-2.75 6.5 -2.75 6.5 -1 5 C0.32 5 1.64 5 3 5 C2.2236068 1.9254644 2.2236068 1.9254644 0 0 Z " fill="#333632" transform="translate(181,127)"/>
<path d="M0 0 C0.33 0.99 0.66 1.98 1 3 C-0.98 3 -2.96 3 -5 3 C-5.268125 3.639375 -5.53625 4.27875 -5.8125 4.9375 C-7 7 -7 7 -10 8 C-10 9.98 -10 11.96 -10 14 C-9.01 14.33 -8.02 14.66 -7 15 C-6.67 15.66 -6.34 16.32 -6 17 C-3.69 17 -1.38 17 1 17 C0.67 18.32 0.34 19.64 0 21 C-7.82484076 21.60191083 -7.82484076 21.60191083 -11.5625 19.6875 C-13.87642028 15.36147513 -13.60717891 10.80094951 -13 6 C-12.00814669 3.55202162 -11.43570563 2.32274491 -9.3125 0.75 C-6.16454282 -0.27095909 -3.28456632 -0.12632947 0 0 Z " fill="#82A868" transform="translate(169,111)"/>
<path d="M0 0 C0.99 0.33 1.98 0.66 3 1 C3 1.99 3 2.98 3 4 C3.474375 4.4125 3.94875 4.825 4.4375 5.25 C6.75724327 7.84811246 6.56203967 10.62144889 7 14 C7.66 14.33 8.32 14.66 9 15 C9.625 17.0625 9.625 17.0625 10 19 C9.34 19 8.68 19 8 19 C8 21.31 8 23.62 8 26 C8.66 26.33 9.32 26.66 10 27 C9.01 27 8.02 27 7 27 C6.67 24.03 6.34 21.06 6 18 C2.37 17.67 -1.26 17.34 -5 17 C-5 14.69 -5 12.38 -5 10 C-4.360625 9.773125 -3.72125 9.54625 -3.0625 9.3125 C-0.76123042 8.16123555 -0.76123042 8.16123555 -0.25 5.5625 C0.04854998 2.93147372 0.04854998 2.93147372 0 0 Z M4 12 C5 14 5 14 5 14 Z M-1 13 C-0.67 13.99 -0.34 14.98 0 16 C0.66 15.67 1.32 15.34 2 15 C1.01 14.34 0.02 13.68 -1 13 Z " fill="#C4C4C4" transform="translate(63,37)"/>
<path d="M0 0 C1.670625 0.061875 1.670625 0.061875 3.375 0.125 C3.705 1.775 4.035 3.425 4.375 5.125 C3.715 5.125 3.055 5.125 2.375 5.125 C2.375 4.465 2.375 3.805 2.375 3.125 C1.385 3.62 1.385 3.62 0.375 4.125 C0.375 4.785 0.375 5.445 0.375 6.125 C-0.285 6.125 -0.945 6.125 -1.625 6.125 C-0.635 7.053125 -0.635 7.053125 0.375 8 C3.17014062 12.36740721 2.72788244 16.07682061 2.375 21.125 C-0.595 21.125 -3.565 21.125 -6.625 21.125 C-6.955 19.805 -7.285 18.485 -7.625 17.125 C-5.645 17.125 -3.665 17.125 -1.625 17.125 C-2.07332963 14.61435405 -2.49911692 13.27102438 -4.1875 11.3125 C-6.24293586 8.18466282 -5.96360651 5.78195026 -5.625 2.125 C-3.625 0.125 -3.625 0.125 0 0 Z " fill="#95B475" transform="translate(76.625,110.875)"/>
<path d="M0 0 C-1.32 0.33 -2.64 0.66 -4 1 C-4.33 2.98 -4.66 4.96 -5 7 C-4.01 6.67 -3.02 6.34 -2 6 C-1.67 5.34 -1.34 4.68 -1 4 C-0.67 5.65 -0.34 7.3 0 9 C-2.31 9 -4.62 9 -7 9 C-6.979375 9.94875 -6.95875 10.8975 -6.9375 11.875 C-7 15 -7 15 -8 17 C-9.32 16.67 -10.64 16.34 -12 16 C-11.67 17.98 -11.34 19.96 -11 22 C-13.14915785 18.77626323 -13.38286803 17.73296326 -13 14 C-12.34 13.34 -11.68 12.68 -11 12 C-11.515625 11.5875 -12.03125 11.175 -12.5625 10.75 C-13.2740625 9.88375 -13.2740625 9.88375 -14 9 C-13.6875 6.8125 -13.6875 6.8125 -13 5 C-13.99 5 -14.98 5 -16 5 C-16 4.34 -16 3.68 -16 3 C-14.68 3.33 -13.36 3.66 -12 4 C-12.33 3.67 -12.66 3.34 -13 3 C-13 2.67 -13 2.34 -13 2 C-4.57142857 -0.28571429 -4.57142857 -0.28571429 0 0 Z " fill="#313031" transform="translate(163,142)"/>
<path d="M0 0 C0.66 1.32 1.32 2.64 2 4 C3.32 2.68 4.64 1.36 6 0 C6.33 2.31 6.66 4.62 7 7 C5.68 7.33 4.36 7.66 3 8 C3 8.66 3 9.32 3 10 C2.34 10 1.68 10 1 10 C0.855625 10.61875 0.71125 11.2375 0.5625 11.875 C0 14 0 14 -1 16 C-1.66 16 -2.32 16 -3 16 C-3 16.66 -3 17.32 -3 18 C-3.99 18 -4.98 18 -6 18 C-6 17.34 -6 16.68 -6 16 C-8.97 16 -11.94 16 -15 16 C-15 14.68 -15 13.36 -15 12 C-13.52093108 11.97310784 -12.04172517 11.95365379 -10.5625 11.9375 C-9.73878906 11.92589844 -8.91507813 11.91429688 -8.06640625 11.90234375 C-6 12 -6 12 -5 13 C-3.35 8.71 -1.7 4.42 0 0 Z " fill="#789360" transform="translate(142,116)"/>
<path d="M0 0 C5.28 0 10.56 0 16 0 C16 0.99 16 1.98 16 3 C15.34 3 14.68 3 14 3 C13.67 3.66 13.34 4.32 13 5 C11.68 5.33 10.36 5.66 9 6 C8.67 10.95 8.34 15.9 8 21 C6.68 20.67 5.36 20.34 4 20 C4 14.72 4 9.44 4 4 C2.68 4.33 1.36 4.66 0 5 C0 3.35 0 1.7 0 0 Z " fill="#94C273" transform="translate(83,111)"/>
<path d="M0 0 C0.66 0.33 1.32 0.66 2 1 C1.67 2.32 1.34 3.64 1 5 C3.31 5 5.62 5 8 5 C7.01 5.66 6.02 6.32 5 7 C4.74984127 10.58357241 4.74984127 10.58357241 5 14 C5.66 14 6.32 14 7 14 C7.33 11.69 7.66 9.38 8 7 C9.85776765 10.13498292 10.20140476 12.37471432 10 16 C7.69 16 5.38 16 3 16 C2.67 14.02 2.34 12.04 2 10 C1.01 10.66 0.02 11.32 -1 12 C-1.31248347 14.51789568 -1.4604266 16.85132292 -1.5 19.375 C-2.1598144 37.1598144 -2.1598144 37.1598144 -6 41 C-7.66617115 41.04063832 -9.33388095 41.042721 -11 41 C-11.33 41.99 -11.66 42.98 -12 44 C-12 42.68 -12 41.36 -12 40 C-9.525 39.505 -9.525 39.505 -7 39 C-4.72635214 33.38722914 -4.3886907 27.84641085 -3.9375 21.875 C-3.78280576 19.91383498 -3.62536089 17.95288451 -3.46484375 15.9921875 C-3.36610962 14.69837158 -3.36610962 14.69837158 -3.26538086 13.37841797 C-2.75306946 8.78693895 -1.27770251 4.42936871 0 0 Z " fill="#959494" transform="translate(55,54)"/>
<path d="M0 0 C2.76127543 1.91165222 4.67436933 3.27211969 6.0625 6.375 C5.97339835 10.11726946 4.23221926 12.09135067 2 15 C-0.27029534 14.60856977 -1.83408198 14.11258722 -3.75 12.8125 C-5.66289487 10.03880244 -5.52668369 8.29177306 -5 5 C-2.5 2.125 -2.5 2.125 0 0 Z " fill="#0A1A05" transform="translate(61,114)"/>
<path d="M0 0 C2.475 0.495 2.475 0.495 5 1 C4.67 5.95 4.34 10.9 4 16 C4.66 16 5.32 16 6 16 C6 16.66 6 17.32 6 18 C9.465 17.505 9.465 17.505 13 17 C13 18.32 13 19.64 13 21 C9.7 21 6.4 21 3 21 C2.67 21.66 2.34 22.32 2 23 C1.34 23 0.68 23 0 23 C0 15.41 0 7.82 0 0 Z " fill="#90A870" transform="translate(39,111)"/>
<path d="M0 0 C13.86 0.99 13.86 0.99 28 2 C28 2.33 28 2.66 28 3 C23.71 3 19.42 3 15 3 C15 3.66 15 4.32 15 5 C17.31 5 19.62 5 22 5 C22 5.33 22 5.66 22 6 C20.54176788 6.0270043 19.08339325 6.04639787 17.625 6.0625 C16.81289062 6.07410156 16.00078125 6.08570312 15.1640625 6.09765625 C13 6 13 6 11 5 C11.66 6.98 12.32 8.96 13 11 C11.68 11 10.36 11 9 11 C8.67 9.35 8.34 7.7 8 6 C5.36 5.67 2.72 5.34 0 5 C0 4.34 0 3.68 0 3 C0.66 3 1.32 3 2 3 C2 2.34 2 1.68 2 1 C1.34 0.67 0.68 0.34 0 0 Z " fill="#304029" transform="translate(72,106)"/>
<path d="M0 0 C0.125 3.375 0.125 3.375 0 7 C-2.8086289 9.8086289 -5.11134294 9.72711179 -9 10 C-9.99 9.34 -10.98 8.68 -12 8 C-12.375 5 -12.375 5 -12 2 C-7.57703297 -0.94864468 -5.15145854 -1.28786464 0 0 Z " fill="#030604" transform="translate(171,117)"/>
<path d="M0 0 C1.65 0 3.3 0 5 0 C5 0.66 5 1.32 5 2 C5.99 1.67 6.98 1.34 8 1 C8.02709444 3.08326131 8.04643873 5.16662441 8.0625 7.25 C8.07410156 8.41015625 8.08570313 9.5703125 8.09765625 10.765625 C8.01782092 13.40977128 7.78643778 15.49826091 7 18 C7.556875 17.814375 8.11375 17.62875 8.6875 17.4375 C11.399133 16.92448835 13.34371039 17.3359276 16 18 C15 20 15 20 13.1875 20.625 C11 21 11 21 7 21 C6.67 20.34 6.34 19.68 6 19 C2.04 19.495 2.04 19.495 -2 20 C-2.33 19.34 -2.66 18.68 -3 18 C-0.36 18 2.28 18 5 18 C5.33 16.68 5.66 15.36 6 14 C3.69 14.33 1.38 14.66 -1 15 C-1.33 14.34 -1.66 13.68 -2 13 C0.64 12.01 3.28 11.02 6 10 C6 8.02 6 6.04 6 4 C4.68 3.34 3.36 2.68 2 2 C1.67 2.66 1.34 3.32 1 4 C0.34 3.34 -0.32 2.68 -1 2 C-0.67 1.34 -0.34 0.68 0 0 Z " fill="#14250D" transform="translate(164,114)"/>
<path d="M0 0 C2.12055529 3.53425882 2.61577388 6.92720311 3 11 C2.67 11.33 2.34 11.66 2 12 C1.9116033 14.3756852 1.88469695 16.72208674 1.90234375 19.09765625 C1.9037587 19.80651474 1.90517365 20.51537323 1.90663147 21.24571228 C1.91224557 23.51801712 1.92480037 25.79022475 1.9375 28.0625 C1.94251319 29.59960796 1.94707641 31.13671745 1.95117188 32.67382812 C1.96221958 36.44925642 1.97949359 40.22461171 2 44 C1.67 44 1.34 44 1 44 C-1.00850548 32.2239411 -2.48935965 20.96212487 -2 9 C-1.34 9 -0.68 9 0 9 C-0.185625 8.2575 -0.37125 7.515 -0.5625 6.75 C-0.99203108 4.05009037 -0.85122974 2.55368923 0 0 Z " fill="#7D906E" transform="translate(112,156)"/>
<path d="M0 0 C0.66 0.33 1.32 0.66 2 1 C2 1.99 2 2.98 2 4 C4.31 4 6.62 4 9 4 C9 4.66 9 5.32 9 6 C7.02 6 5.04 6 3 6 C3.33 7.65 3.66 9.3 4 11 C3.01 10.67 2.02 10.34 1 10 C-1.39254576 9.77439324 -3.78928123 9.59151405 -6.1875 9.4375 C-7.45980469 9.35371094 -8.73210938 9.26992187 -10.04296875 9.18359375 C-11.50669922 9.09271484 -11.50669922 9.09271484 -13 9 C-11.82421875 6.55078125 -11.82421875 6.55078125 -10 4 C-7.51953125 3.29296875 -7.51953125 3.29296875 -4.8125 3.1875 C-3.46091797 3.11595703 -3.46091797 3.11595703 -2.08203125 3.04296875 C-1.05142578 3.02169922 -1.05142578 3.02169922 0 3 C0 2.01 0 1.02 0 0 Z " fill="#121B0C" transform="translate(68,128)"/>
<path d="M0 0 C3.96 0.33 7.92 0.66 12 1 C12 5.29 12 9.58 12 14 C9.69 14 7.38 14 5 14 C5 13.01 5 12.02 5 11 C6.32 10.34 7.64 9.68 9 9 C8.67 8.01 8.34 7.02 8 6 C5.36 5.67 2.72 5.34 0 5 C0 3.35 0 1.7 0 0 Z " fill="#94C17B" transform="translate(108,109)"/>
<path d="M0 0 C0.66 0.33 1.32 0.66 2 1 C1.67 1.99 1.34 2.98 1 4 C0.34 4 -0.32 4 -1 4 C-0.67 6.31 -0.34 8.62 0 11 C0.66 11 1.32 11 2 11 C2 12.32 2 13.64 2 15 C1.01 15.33 0.02 15.66 -1 16 C-2.20882096 18.00016466 -2.20882096 18.00016466 -3 20 C-6.13395108 16.86604892 -5.94025771 13.69301062 -6.3125 9.375 C-6 6 -6 6 -4.125 4.0625 C-2 3 -2 3 0 3 C0 2.01 0 1.02 0 0 Z " fill="#070504" transform="translate(108,145)"/>
<path d="M0 0 C0 0.66 0 1.32 0 2 C0.66 2 1.32 2 2 2 C2 3.32 2 4.64 2 6 C5.26954202 5.43628586 6.82575883 4.50037734 9 2 C9.66 3.98 10.32 5.96 11 8 C9.02 9.65 7.04 11.3 5 13 C4.34 12.34 3.68 11.68 3 11 C3 10.67 3 10.34 3 10 C2.01 10 1.02 10 0 10 C0.33 7.69 0.66 5.38 1 3 C0.0925 3.37125 -0.815 3.7425 -1.75 4.125 C-5 5 -5 5 -7.375 4.125 C-7.91125 3.75375 -8.4475 3.3825 -9 3 C-8.34 3 -7.68 3 -7 3 C-7 2.01 -7 1.02 -7 0 C-3.86650268 -1.04449911 -3.01031744 -0.93423645 0 0 Z " fill="#363533" transform="translate(82,59)"/>
<path d="M0 0 C3 0 3 0 4.75 1.1875 C6 3 6 3 5.6875 5.6875 C5.460625 6.450625 5.23375 7.21375 5 8 C4.34 8 3.68 8 3 8 C3.061875 9.0828125 3.061875 9.0828125 3.125 10.1875 C2.99078695 13.20729369 2.24829381 15.26935729 1 18 C0.67 18 0.34 18 0 18 C-0.4803318 16.41701974 -0.95921612 14.83360022 -1.4375 13.25 C-1.70433594 12.36828125 -1.97117187 11.4865625 -2.24609375 10.578125 C-2.88468494 8.39434165 -3.46775833 6.21164502 -4 4 C-3.01 3.67 -2.02 3.34 -1 3 C-0.67 2.01 -0.34 1.02 0 0 Z " fill="#212020" transform="translate(107,192)"/>
<path d="M0 0 C2.4375 1.1875 2.4375 1.1875 4 3 C4.25 5.6875 4.25 5.6875 4 8 C1.0280615 6.87548273 -1.33440687 5.77706209 -4 4 C-7.67230705 7.07999946 -8.56802365 9.2482602 -9 14 C-10.56633048 11.51229865 -11.04100928 10.34447796 -10.6875 7.375 C-10 5 -10 5 -9 3 C-9.66 2.67 -10.32 2.34 -11 2 C-7.35187527 -0.33479983 -4.25812212 -0.38018947 0 0 Z " fill="#8FB76E" transform="translate(65,111)"/>
<path d="M0 0 C1.67530746 0.28676434 3.34074721 0.63153145 5 1 C7.10292246 1.36148102 9.20714561 1.71546356 11.3125 2.0625 C12.38113281 2.23910156 13.44976562 2.41570312 14.55078125 2.59765625 C15.35902344 2.73042969 16.16726562 2.86320313 17 3 C17 3.66 17 4.32 17 5 C16.00097656 5.19335938 15.00195312 5.38671875 13.97265625 5.5859375 C12.68230469 5.84632813 11.39195313 6.10671875 10.0625 6.375 C8.77472656 6.63023437 7.48695312 6.88546875 6.16015625 7.1484375 C5.11730469 7.42945313 4.07445313 7.71046875 3 8 C2.67 8.66 2.34 9.32 2 10 C1.01 10 0.02 10 -1 10 C-0.814375 9.2575 -0.62875 8.515 -0.4375 7.75 C-0.00415005 5.02608603 -0.2593443 3.59229496 -1 1 C-0.67 0.67 -0.34 0.34 0 0 Z " fill="#101B0B" transform="translate(81,139)"/>
<path d="M0 0 C0.33 0 0.66 0 1 0 C1 3.3 1 6.6 1 10 C8.92 9.67 16.84 9.34 25 9 C24.67 7.68 24.34 6.36 24 5 C24.33 5.66 24.66 6.32 25 7 C28.465 6.505 28.465 6.505 32 6 C31.67 7.98 31.34 9.96 31 12 C20.60330359 12.1132812 10.36503256 11.91987611 0 11 C0 7.37 0 3.74 0 0 Z " fill="#393738" transform="translate(120,96)"/>
<path d="M0 0 C0.33 0.66 0.66 1.32 1 2 C1.66 2.33 2.32 2.66 3 3 C1.02 3.99 1.02 3.99 -1 5 C-0.67 6.65 -0.34 8.3 0 10 C0.66 10 1.32 10 2 10 C2 10.66 2 11.32 2 12 C2.66 12 3.32 12 4 12 C3.67 13.65 3.34 15.3 3 17 C2.34 16.67 1.68 16.34 1 16 C1 15.34 1 14.68 1 14 C-1.64 13.67 -4.28 13.34 -7 13 C-8 10 -8 10 -6.3125 6.5 C-4.58451943 3.65214351 -2.88770643 1.75325033 0 0 Z " fill="#2E2E2E" transform="translate(42,98)"/>
<path d="M0 0 C3.7952131 1.49097658 5.61042731 3.75700849 8 7 C7.34 7 6.68 7 6 7 C5.67 7.66 5.34 8.32 5 9 C4.01 9 3.02 9 2 9 C1.67 10.32 1.34 11.64 1 13 C0.34 13 -0.32 13 -1 13 C-2.39737627 9.24455129 -3.55917108 6.02603178 -3 2 C-2.01 1.34 -1.02 0.68 0 0 Z " fill="#0A1104" transform="translate(115,149)"/>
<path d="M0 0 C0.99 0.33 1.98 0.66 3 1 C5.02034678 1.04434232 7.04204845 1.03927974 9.0625 1 C14.77829638 0.88914819 14.77829638 0.88914819 17 2 C17 1.34 17 0.68 17 0 C17.99 0 18.98 0 20 0 C20.19658808 1.41543415 20.38187546 2.83244031 20.5625 4.25 C20.66691406 5.03890625 20.77132812 5.8278125 20.87890625 6.640625 C21.00027349 9.00532874 20.69633257 10.7511037 20 13 C19.01 13 18.02 13 17 13 C15.875 6.25 15.875 6.25 17 4 C11.72 3.67 6.44 3.34 1 3 C0.67 2.01 0.34 1.02 0 0 Z " fill="#BEBEBD" transform="translate(140,59)"/>
<path d="M0 0 C1.93166016 0.01740234 1.93166016 0.01740234 3.90234375 0.03515625 C5.19269531 0.04417969 6.48304688 0.05320313 7.8125 0.0625 C8.81152344 0.07410156 9.81054688 0.08570313 10.83984375 0.09765625 C10.83984375 0.42765625 10.83984375 0.75765625 10.83984375 1.09765625 C10.14117187 1.14664063 9.4425 1.195625 8.72265625 1.24609375 C7.81257812 1.32085937 6.9025 1.395625 5.96484375 1.47265625 C5.05992187 1.54226562 4.155 1.611875 3.22265625 1.68359375 C0.66042472 1.89333757 0.66042472 1.89333757 -1.16015625 4.09765625 C-1.80267975 6.16639659 -1.80267975 6.16639659 -2.16015625 8.09765625 C-1.17015625 8.42765625 -0.18015625 8.75765625 0.83984375 9.09765625 C0.83984375 10.41765625 0.83984375 11.73765625 0.83984375 13.09765625 C1.82984375 12.76765625 2.81984375 12.43765625 3.83984375 12.09765625 C4.82984375 12.75765625 5.81984375 13.41765625 6.83984375 14.09765625 C4.52984375 14.42765625 2.21984375 14.75765625 -0.16015625 15.09765625 C-2.43052631 12.57074719 -4.50852598 10.07486681 -6.16015625 7.09765625 C-5.3841782 2.35556816 -4.9084596 0.15168293 0 0 Z " fill="#12210F" transform="translate(123.16015625,138.90234375)"/>
<path d="M0 0 C0.99 0.33 1.98 0.66 3 1 C2.67 1.66 2.34 2.32 2 3 C1.60037453 7.23603003 1.42375766 9.24913877 4.0625 12.6875 C4.701875 13.450625 5.34125 14.21375 6 15 C5.75 17.3125 5.75 17.3125 5 19 C3.02 18.67 1.04 18.34 -1 18 C-1.16798051 15.72926348 -1.33434113 13.45840707 -1.5 11.1875 C-1.5928125 9.92292969 -1.685625 8.65835938 -1.78125 7.35546875 C-1.91914781 5.24021483 -2 3.11974408 -2 1 C-1.34 0.67 -0.68 0.34 0 0 Z " fill="#081604" transform="translate(70,110)"/>
<path d="M0 0 C0.66 0 1.32 0 2 0 C2.33611568 2.10372401 2.66879946 4.20799657 3 6.3125 C3.185625 7.48425781 3.37125 8.65601562 3.5625 9.86328125 C4 13 4 13 4 16 C3.01 16.66 2.02 17.32 1 18 C-1.0625 15.9375 -1.0625 15.9375 -3 13 C-2.83177773 8.37388747 -1.58408147 4.32982269 0 0 Z " fill="#0A0907" transform="translate(173,77)"/>
<path d="M0 0 C4 0 8 0 12 0 C13.32 3.3 14.64 6.6 16 10 C15.01 10.66 14.02 11.32 13 12 C12.34 10.35 11.68 8.7 11 7 C10.01 7 9.02 7 8 7 C7.67 6.67 7.34 6.34 7 6 C5.33985384 5.63557767 3.67293936 5.30027117 2 5 C3 3 3 3 6 2 C3.03 1.505 3.03 1.505 0 1 C0 0.67 0 0.34 0 0 Z " fill="#040403" transform="translate(127,157)"/>
<path d="M0 0 C1.65 0 3.3 0 5 0 C5.66 1.32 6.32 2.64 7 4 C6.34 4.66 5.68 5.32 5 6 C4.01 6 3.02 6 2 6 C2 6.99 2 7.98 2 9 C3.65 9 5.3 9 7 9 C7 9.66 7 10.32 7 11 C5.68 10.67 4.36 10.34 3 10 C3 10.66 3 11.32 3 12 C2.34 12 1.68 12 1 12 C1 14.31 1 16.62 1 19 C0.67 19 0.34 19 0 19 C0 12.73 0 6.46 0 0 Z " fill="#466B34" transform="translate(111,114)"/>
<path d="M0 0 C0.33 0 0.66 0 1 0 C1 3.3 1 6.6 1 10 C1.66 10.33 2.32 10.66 3 11 C2.67 12.32 2.34 13.64 2 15 C1.01 15 0.02 15 -1 15 C-1.33 16.98 -1.66 18.96 -2 21 C-2.66 21 -3.32 21 -4 21 C-4.33 21.66 -4.66 22.32 -5 23 C-5.66 22.67 -6.32 22.34 -7 22 C-7 21.34 -7 20.68 -7 20 C-6.01 19.67 -5.02 19.34 -4 19 C-4.020625 17.88625 -4.04125 16.7725 -4.0625 15.625 C-4 12 -4 12 -3 10 C-2.34 10 -1.68 10 -1 10 C-1.01160156 9.36191406 -1.02320312 8.72382812 -1.03515625 8.06640625 C-1.04417969 7.24011719 -1.05320312 6.41382813 -1.0625 5.5625 C-1.07410156 4.73878906 -1.08570312 3.91507813 -1.09765625 3.06640625 C-1 1 -1 1 0 0 Z " fill="#494848" transform="translate(101,24)"/>
<path d="M0 0 C1.670625 0.061875 1.670625 0.061875 3.375 0.125 C1.93965187 7.71184009 1.93965187 7.71184009 -1.1875 10 C-3.91184933 11.8926163 -3.91184933 11.8926163 -3.9375 14.875 C-3.834375 15.6175 -3.73125 16.36 -3.625 17.125 C-4.285 17.125 -4.945 17.125 -5.625 17.125 C-5.955 14.815 -6.285 12.505 -6.625 10.125 C-5.305 9.795 -3.985 9.465 -2.625 9.125 C-2.625 7.145 -2.625 5.165 -2.625 3.125 C-3.615 2.795 -4.605 2.465 -5.625 2.125 C-3.625 0.125 -3.625 0.125 0 0 Z " fill="#111F0C" transform="translate(113.625,138.875)"/>
<path d="M0 0 C1.32 0.33 2.64 0.66 4 1 C4 1.66 4 2.32 4 3 C6.31 3 8.62 3 11 3 C11.04254356 4.99954746 11.04080783 7.00041636 11 9 C10 10 10 10 6.9375 10.0625 C5.968125 10.041875 4.99875 10.02125 4 10 C4 9.67 4 9.34 4 9 C1.03 8.505 1.03 8.505 -2 8 C-1.67 7.01 -1.34 6.02 -1 5 C1.0625 4.3125 1.0625 4.3125 3 4 C3 3.34 3 2.68 3 2 C2.01 2 1.02 2 0 2 C0 1.34 0 0.68 0 0 Z " fill="#9E9E9E" transform="translate(203,118)"/>
<path d="M0 0 C1.98 0 3.96 0 6 0 C6 0.99 6 1.98 6 3 C5.01 3.495 5.01 3.495 4 4 C3.67 9.61 3.34 15.22 3 21 C2.34 21 1.68 21 1 21 C0.67 21.66 0.34 22.32 0 23 C0 15.41 0 7.82 0 0 Z " fill="#96B882" transform="translate(123,111)"/>
<path d="M0 0 C0.33 0 0.66 0 1 0 C1 1.98 1 3.96 1 6 C2.32 6 3.64 6 5 6 C5.33 6.66 5.66 7.32 6 8 C8.31 8 10.62 8 13 8 C12.67 9.32 12.34 10.64 12 12 C10.5629191 12.05422947 9.12524538 12.09289723 7.6875 12.125 C6.88699219 12.14820313 6.08648437 12.17140625 5.26171875 12.1953125 C3 12 3 12 0 10 C-0.29296875 7.6171875 -0.29296875 7.6171875 -0.1875 4.875 C-0.16042969 3.96492188 -0.13335937 3.05484375 -0.10546875 2.1171875 C-0.07066406 1.41851562 -0.03585938 0.71984375 0 0 Z " fill="#96C07B" transform="translate(157,120)"/>
<path d="M0 0 C0.99 0.33 1.98 0.66 3 1 C2.34 1 1.68 1 1 1 C1 1.66 1 2.32 1 3 C3.64 3 6.28 3 9 3 C9 4.98 9 6.96 9 9 C6.36 9 3.72 9 1 9 C1.33 9.99 1.66 10.98 2 12 C1.01 12.495 1.01 12.495 0 13 C0 8.71 0 4.42 0 0 Z " fill="#72995D" transform="translate(174,116)"/>
<path d="M0 0 C0.33 0 0.66 0 1 0 C1.19561869 2.0825867 1.38119313 4.16611856 1.5625 6.25 C1.66691406 7.41015625 1.77132812 8.5703125 1.87890625 9.765625 C2 13 2 13 1 17 C3.97 17 6.94 17 10 17 C9.34 18.32 8.68 19.64 8 21 C5.8359375 21.609375 5.8359375 21.609375 3.375 21.75 C2.55773437 21.80671875 1.74046875 21.8634375 0.8984375 21.921875 C0.27195312 21.94765625 -0.35453125 21.9734375 -1 22 C-0.83701416 21.42926758 -0.67402832 20.85853516 -0.50610352 20.27050781 C0.00368519 17.98346733 0.11435968 16.01035544 0.09765625 13.671875 C0.09443359 12.87265625 0.09121094 12.0734375 0.08789062 11.25 C0.07951172 10.425 0.07113281 9.6 0.0625 8.75 C0.05573242 7.48929687 0.05573242 7.48929687 0.04882812 6.203125 C0.03707961 4.13538599 0.01914522 2.06768376 0 0 Z " fill="#14250D" transform="translate(126,115)"/>
<path d="M0 0 C1.98 0 3.96 0 6 0 C6.04241723 2.33294775 6.04092937 4.66702567 6 7 C5.67 7.33 5.34 7.66 5 8 C4.63239269 10.32817964 4.29758419 12.6618385 4 15 C3.01 14.34 2.02 13.68 1 13 C1.66 13 2.32 13 3 13 C3 11.68 3 10.36 3 9 C1.576875 9.2784375 1.576875 9.2784375 0.125 9.5625 C-3 10 -3 10 -5 9 C-5 8.34 -5 7.68 -5 7 C-1.94736336 6.01879536 -0.05263664 6.01879536 3 7 C3 6.34 3 5.68 3 5 C1.35 5 -0.3 5 -2 5 C-2 4.67 -2 4.34 -2 4 C-0.02 4 1.96 4 4 4 C4 3.01 4 2.02 4 1 C2.68 0.67 1.36 0.34 0 0 Z " fill="#1D2E12" transform="translate(180,110)"/>
<path d="M0 0 C0.33 0 0.66 0 1 0 C1.04898438 0.90363281 1.09796875 1.80726562 1.1484375 2.73828125 C1.22320312 3.91777344 1.29796875 5.09726562 1.375 6.3125 C1.44460937 7.48425781 1.51421875 8.65601563 1.5859375 9.86328125 C1.78613747 13.15699887 1.78613747 13.15699887 4 16 C4.66 16 5.32 16 6 16 C6 16.66 6 17.32 6 18 C6.66 18 7.32 18 8 18 C8 20.97 8 23.94 8 27 C7.01 27 6.02 27 5 27 C4.89042969 26.36191406 4.78085938 25.72382812 4.66796875 25.06640625 C4.50941406 24.24011719 4.35085937 23.41382812 4.1875 22.5625 C3.96126953 21.32693359 3.96126953 21.32693359 3.73046875 20.06640625 C3.48941406 19.38449219 3.24835938 18.70257813 3 18 C2.01 17.67 1.02 17.34 0 17 C0 11.39 0 5.78 0 0 Z M6 19 C7 21 7 21 7 21 Z " fill="#C2C2C2" transform="translate(127,35)"/>
<path d="M0 0 C0.99 0 1.98 0 3 0 C3 1.32 3 2.64 3 4 C6.0831351 2.80100302 9.06279492 1.52299523 12 0 C13 3 13 3 11.5625 6.1875 C10.7890625 7.5796875 10.7890625 7.5796875 10 9 C7.625 9.1875 7.625 9.1875 5 9 C3.66666667 7 2.33333333 5 1 3 C1.33 2.34 1.66 1.68 2 1 C1.34 0.67 0.68 0.34 0 0 Z " fill="#4A4947" transform="translate(79,171)"/>
<path d="M0 0 C1.65 0 3.3 0 5 0 C4.67 5.61 4.34 11.22 4 17 C2.68 16.67 1.36 16.34 0 16 C0 10.72 0 5.44 0 0 Z " fill="#78955E" transform="translate(87,115)"/>
<path d="M0 0 C1.93709638 3.25753924 2.23715445 5.65609928 2.1953125 9.421875 C2.18886719 10.44667969 2.18242188 11.47148438 2.17578125 12.52734375 C2.15902344 13.59082031 2.14226562 14.65429688 2.125 15.75 C2.11597656 16.82894531 2.10695313 17.90789062 2.09765625 19.01953125 C2.07411305 21.67991278 2.04122799 24.33984336 2 27 C0.50463867 25.84643555 0.50463867 25.84643555 -1 24 C-1.2487793 21.45629883 -1.2487793 21.45629883 -1.07421875 18.45703125 C-1.01943359 17.38388672 -0.96464844 16.31074219 -0.90820312 15.20507812 C-0.83537109 14.08552734 -0.76253906 12.96597656 -0.6875 11.8125 C-0.62626953 10.68134766 -0.56503906 9.55019531 -0.50195312 8.38476562 C-0.34858501 5.58874697 -0.18072046 2.79436237 0 0 Z " fill="#9DBE82" transform="translate(109,110)"/>
<path d="M0 0 C0.66 1.32 1.32 2.64 2 4 C3.32 2.68 4.64 1.36 6 0 C6.33 2.31 6.66 4.62 7 7 C5.68 7.33 4.36 7.66 3 8 C3 8.66 3 9.32 3 10 C2.01 10.33 1.02 10.66 0 11 C-1.76062164 7.67438135 -2.10784228 6.40826005 -1.125 2.6875 C-0.568125 1.3571875 -0.568125 1.3571875 0 0 Z " fill="#81A762" transform="translate(142,116)"/>
<path d="M0 0 C0.99 0.33 1.98 0.66 3 1 C3 1.99 3 2.98 3 4 C3.474375 4.474375 3.94875 4.94875 4.4375 5.4375 C6.30679733 7.30679733 6.68423926 8.39497393 7 11 C6.5625 13.25 6.5625 13.25 6 15 C4.68 13.68 3.36 12.36 2 11 C1.67 11.66 1.34 12.32 1 13 C0.34 12.01 -0.32 11.02 -1 10 C-0.34 10 0.32 10 1 10 C0.835 8.906875 0.67 7.81375 0.5 6.6875 C0 3 0 3 0 0 Z " fill="#AAAAAA" transform="translate(63,37)"/>
<path d="M0 0 C2.31 0.66 4.62 1.32 7 2 C7.33 3.32 7.66 4.64 8 6 C10.31 6 12.62 6 15 6 C15.33 6.66 15.66 7.32 16 8 C15.01 9.485 15.01 9.485 14 11 C14 10.01 14 9.02 14 8 C13.34 8 12.68 8 12 8 C11.34 8.66 10.68 9.32 10 10 C10 9.01 10 8.02 10 7 C9.34 7 8.68 7 8 7 C7.67 7.66 7.34 8.32 7 9 C7 8.34 7 7.68 7 7 C6.34 7 5.68 7 5 7 C4.67 5.35 4.34 3.7 4 2 C3.071875 2.99 3.071875 2.99 2.125 4 C0 6 0 6 -2 6 C-1.34 4.02 -0.68 2.04 0 0 Z " fill="#141A0D" transform="translate(143,126)"/>
<path d="M0 0 C2.3431213 0.25561323 4.67843403 0.59270772 7 1 C7.33 1.66 7.66 2.32 8 3 C7.34 3 6.68 3 6 3 C6 3.66 6 4.32 6 5 C4.35 4.67 2.7 4.34 1 4 C1 5.65 1 7.3 1 9 C0.34 9 -0.32 9 -1 9 C-1 7.68 -1 6.36 -1 5 C-3.64 5 -6.28 5 -9 5 C-9.33 4.01 -9.66 3.02 -10 2 C-7.1875 1.375 -7.1875 1.375 -4 1 C-3.01 1.66 -2.02 2.32 -1 3 C-0.67 2.01 -0.34 1.02 0 0 Z " fill="#091304" transform="translate(170,107)"/>
<path d="M0 0 C0.33 1.32 0.66 2.64 1 4 C1.61875 3.814375 2.2375 3.62875 2.875 3.4375 C5 3 5 3 7 4 C7.625 7.0625 7.625 7.0625 8 10 C7.01 10.33 6.02 10.66 5 11 C4.01 10.34 3.02 9.68 2 9 C1.67 10.65 1.34 12.3 1 14 C0.67 14 0.34 14 0 14 C0 9.38 0 4.76 0 0 Z " fill="#4C4B4B" transform="translate(178,93)"/>
<path d="M0 0 C0.33 0 0.66 0 1 0 C1 3.3 1 6.6 1 10 C1.66 10 2.32 10 3 10 C3 10.66 3 11.32 3 12 C6.465 11.505 6.465 11.505 10 11 C10 12.32 10 13.64 10 15 C2.25 15.125 2.25 15.125 0 14 C0 9.38 0 4.76 0 0 Z " fill="#6F895C" transform="translate(42,117)"/>
<path d="M0 0 C0.66 0 1.32 0 2 0 C2 3.3 2 6.6 2 10 C1.34 10 0.68 10 0 10 C-0.66 11.32 -1.32 12.64 -2 14 C-3.32 13.67 -4.64 13.34 -6 13 C-5.67 12.34 -5.34 11.68 -5 11 C-4.34 11.33 -3.68 11.66 -3 12 C-2.95101562 11.30132812 -2.90203125 10.60265625 -2.8515625 9.8828125 C-2.77679688 8.97273438 -2.70203125 8.06265625 -2.625 7.125 C-2.55539063 6.22007813 -2.48578125 5.31515625 -2.4140625 4.3828125 C-2 2 -2 2 0 0 Z " fill="#020601" transform="translate(86,117)"/>
<path d="M0 0 C2.31 0 4.62 0 7 0 C6.1875 2.9375 6.1875 2.9375 5 6 C0.82412255 7.39195915 -1.13474776 5.82323219 -5 4 C-4.34 3.01 -3.68 2.02 -3 1 C-2.01 1.33 -1.02 1.66 0 2 C0 1.34 0 0.68 0 0 Z " fill="#0F150A" transform="translate(139,132)"/>
<path d="M0 0 C0.99 0.66 1.98 1.32 3 2 C2.83805935 8.31568548 -0.76643648 12.61742907 -5 17 C-7.23046875 18.265625 -7.23046875 18.265625 -9 19 C-8.51789063 18.29875 -8.03578125 17.5975 -7.5390625 16.875 C-3.80898845 11.27227653 -1.13026321 6.65599445 0 0 Z " fill="#8EA07F" transform="translate(99,151)"/>
<path d="M0 0 C1.65 0 3.3 0 5 0 C4.67 0.99 4.34 1.98 4 3 C8.29 3.66 12.58 4.32 17 5 C17 6.65 17 8.3 17 10 C16.34 9.01 15.68 8.02 15 7 C12.93563011 6.76310509 10.86894788 6.53855654 8.796875 6.3828125 C3.3616216 5.63888117 -1.80832101 3.72521017 -7 2 C-3.98968256 1.06576355 -3.13349732 0.95550089 0 2 C0 1.34 0 0.68 0 0 Z " fill="#838485" transform="translate(28,130)"/>
<path d="M0 0 C1.134375 0.020625 2.26875 0.04125 3.4375 0.0625 C3.7675 1.7125 4.0975 3.3625 4.4375 5.0625 C3.7775 5.0625 3.1175 5.0625 2.4375 5.0625 C2.4375 4.4025 2.4375 3.7425 2.4375 3.0625 C1.4475 3.5575 1.4475 3.5575 0.4375 4.0625 C0.4375 4.7225 0.4375 5.3825 0.4375 6.0625 C-1.5425 7.0525 -1.5425 7.0525 -3.5625 8.0625 C-3.94313221 5.7364143 -4.27519945 3.40194736 -4.5625 1.0625 C-3.5625 0.0625 -3.5625 0.0625 0 0 Z " fill="#8ABA6B" transform="translate(76.5625,110.9375)"/>
<path d="M0 0 C0.66 0.33 1.32 0.66 2 1 C2 1.99 2 2.98 2 4 C4.31 4 6.62 4 9 4 C9 4.66 9 5.32 9 6 C7.948125 5.979375 6.89625 5.95875 5.8125 5.9375 C2.18709507 5.85290799 2.18709507 5.85290799 -0.5 6.625 C-4.00380011 7.15057002 -6.6823973 6.10586757 -10 5 C-10 4.67 -10 4.34 -10 4 C-6.7 3.67 -3.4 3.34 0 3 C0 2.01 0 1.02 0 0 Z " fill="#1F3012" transform="translate(68,128)"/>
<path d="M0 0 C2.53730112 0 4.52589282 0.36152073 7 1 C7.12375 1.7425 7.2475 2.485 7.375 3.25 C7.95486701 5.80141485 8.73708739 7.7267573 10 10 C10.66 10 11.32 10 12 10 C12 10.99 12 11.98 12 13 C10 12 10 12 9 9 C8.34 9 7.68 9 7 9 C6.34 8.01 5.68 7.02 5 6 C2.41619823 5.74969023 2.41619823 5.74969023 0 6 C0 4.02 0 2.04 0 0 Z " fill="#CCCBCA" transform="translate(136,63)"/>
<path d="M0 0 C3.86648272 1.04097612 7.49461443 2.03698408 11 4 C11 4.66 11 5.32 11 6 C10.01 6.33 9.02 6.66 8 7 C7.34 6.67 6.68 6.34 6 6 C5.67 6.99 5.34 7.98 5 9 C2.67527795 6.14693203 1.2491742 3.45925163 0 0 Z " fill="#091407" transform="translate(136,139)"/>
<path d="M0 0 C1.258125 0.12375 2.51625 0.2475 3.8125 0.375 C4.87404297 0.47941406 4.87404297 0.47941406 5.95703125 0.5859375 C8 1 8 1 11 3 C10.67 3.99 10.34 4.98 10 6 C6.7 5.67 3.4 5.34 0 5 C0 3.35 0 1.7 0 0 Z " fill="#81B15B" transform="translate(108,109)"/>
<path d="M0 0 C2 1 2 1 3 2 C3.7734375 2.7115625 3.7734375 2.7115625 4.5625 3.4375 C6 5 6 5 6 7 C5.01 6.67 4.02 6.34 3 6 C2.01 7.98 1.02 9.96 0 12 C-1.231394 9.53721199 -1.07159196 7.7204945 -1 5 C-2.32 5 -3.64 5 -5 5 C-4.67 4.34 -4.34 3.68 -4 3 C-3.01 3.33 -2.02 3.66 -1 4 C-0.67 2.68 -0.34 1.36 0 0 Z " fill="#3C3838" transform="translate(134,161)"/>
<path d="M0 0 C2.4294516 3.6441774 2.16179575 5.71241272 2 10 C1.360625 10.28875 0.72125 10.5775 0.0625 10.875 C-2.15206079 11.82823451 -2.15206079 11.82823451 -3 14 C-2.67 10.7 -2.34 7.4 -2 4 C-1.34 4 -0.68 4 0 4 C0 2.68 0 1.36 0 0 Z " fill="#02070A" transform="translate(108,164)"/>
<path d="M0 0 C3 2 3 2 3.73046875 4.1640625 C3.88128906 4.97617188 4.03210938 5.78828125 4.1875 6.625 C4.34605469 7.44226563 4.50460938 8.25953125 4.66796875 9.1015625 C4.77753906 9.72804687 4.88710937 10.35453125 5 11 C2.98863724 8.44008376 1.37154504 5.95409701 0 3 C-4.65052872 2.73067479 -4.65052872 2.73067479 -9 4 C-11.125 3.0625 -11.125 3.0625 -13 2 C-8.50316286 0.24513673 -4.82574442 -0.36420713 0 0 Z " fill="#86987B" transform="translate(137,152)"/>
<path d="M0 0 C0.70125 0.144375 1.4025 0.28875 2.125 0.4375 C5.07556141 1.01478375 8.03270151 1.51695141 11 2 C11 2.99 11 3.98 11 5 C9.02 5 7.04 5 5 5 C4.67 6.65 4.34 8.3 4 10 C4.99 10.33 5.98 10.66 7 11 C5.68 11.33 4.36 11.66 3 12 C3 8.7 3 5.4 3 2 C2.01 1.67 1.02 1.34 0 1 C0 0.67 0 0.34 0 0 Z " fill="#D8D8D8" transform="translate(133,50)"/>
<path d="M0 0 C0.33 0.99 0.66 1.98 1 3 C-0.98 3 -2.96 3 -5 3 C-5.33 3.99 -5.66 4.98 -6 6 C-7.32 5.67 -8.64 5.34 -10 5 C-9.625 3.0625 -9.625 3.0625 -9 1 C-6.04335481 -0.4783226 -3.25770263 -0.06032783 0 0 Z " fill="#91B36F" transform="translate(169,111)"/>
<path d="M0 0 C3.09433723 2.53173046 4.04150794 5.16603176 5 9 C4.67 9.99 4.34 10.98 4 12 C0.46597843 9.64398562 -0.505375 7.93322367 -2 4 C-1.1875 1.625 -1.1875 1.625 0 0 Z " fill="#646364" transform="translate(123,21)"/>
<path d="M0 0 C3.11257569 0 5.10765685 -0.17361624 8 -1 C8 -0.34 8 0.32 8 1 C5.02958551 2.48520725 2.30235553 2.1705822 -1 2.1875 C-2.8871875 2.20876953 -2.8871875 2.20876953 -4.8125 2.23046875 C-8 2 -8 2 -10 0 C-6.26172028 -0.96127193 -3.73662428 -0.86229791 0 0 Z " fill="#020702" transform="translate(171,134)"/>
<path d="M0 0 C2 2 2 2 2.125 5.625 C2.08375 6.73875 2.0425 7.8525 2 9 C-0.31 9.66 -2.62 10.32 -5 11 C-3.55049545 7.2089881 -1.84827434 3.6125362 0 0 Z " fill="#0A1309" transform="translate(101,156)"/>
<path d="M0 0 C1.125 1.75 1.125 1.75 2 4 C1.125 6.25 1.125 6.25 0 8 C-0.99 8 -1.98 8 -3 8 C-3 7.34 -3 6.68 -3 6 C-3.66 6 -4.32 6 -5 6 C-5 4.68 -5 3.36 -5 2 C-3.35 1.34 -1.7 0.68 0 0 Z " fill="#04080D" transform="translate(62,117)"/>
<path d="M0 0 C0.598125 0.20625 1.19625 0.4125 1.8125 0.625 C1.0390625 1.800625 1.0390625 1.800625 0.25 3 C-0.224375 3.86625 -0.69875 4.7325 -1.1875 5.625 C-0.8575 6.285 -0.5275 6.945 -0.1875 7.625 C-1.1775 7.955 -2.1675 8.285 -3.1875 8.625 C-3.8475 8.295 -4.5075 7.965 -5.1875 7.625 C-5.375 4.75 -5.375 4.75 -5.1875 1.625 C-2.1875 -0.375 -2.1875 -0.375 0 0 Z " fill="#030B05" transform="translate(164.1875,117.375)"/>
<path d="M0 0 C0 0.66 0 1.32 0 2 C0.66 2 1.32 2 2 2 C1.67 3.32 1.34 4.64 1 6 C1 5.01 1 4.02 1 3 C0.0925 3.37125 -0.815 3.7425 -1.75 4.125 C-5 5 -5 5 -7.375 4.125 C-7.91125 3.75375 -8.4475 3.3825 -9 3 C-8.34 3 -7.68 3 -7 3 C-7 2.01 -7 1.02 -7 0 C-3.86650268 -1.04449911 -3.01031744 -0.93423645 0 0 Z " fill="#767676" transform="translate(82,59)"/>
<path d="M0 0 C0.66 0.99 1.32 1.98 2 3 C1.34 3.66 0.68 4.32 0 5 C-0.33 4.67 -0.66 4.34 -1 4 C-3.18292774 3.76518307 -5.37203174 3.58636677 -7.5625 3.4375 C-9.35880859 3.31181641 -9.35880859 3.31181641 -11.19140625 3.18359375 C-12.11824219 3.12300781 -13.04507813 3.06242188 -14 3 C-14 2.67 -14 2.34 -14 2 C-9.188314 0.42883723 -5.13059902 -0.5029999 0 0 Z " fill="#1C2C12" transform="translate(137,154)"/>
<path d="M0 0 C0.99 0.33 1.98 0.66 3 1 C3 1.66 3 2.32 3 3 C4.45833358 4.62514468 4.45833358 4.62514468 6 6 C5.01 7.485 5.01 7.485 4 9 C0.08597051 7.73058503 -1.79072873 6.48832306 -4 3 C-2.68 3 -1.36 3 0 3 C0 2.01 0 1.02 0 0 Z " fill="#121915" transform="translate(87,131)"/>
<path d="M0 0 C0.66 0 1.32 0 2 0 C1.835 1.0725 1.67 2.145 1.5 3.25 C0.91189085 7.03028752 0.91189085 7.03028752 1 11 C1.99 11.33 2.98 11.66 4 12 C4 12.99 4 13.98 4 15 C2.35 14.67 0.7 14.34 -1 14 C-1.02694851 12.04174127 -1.04637218 10.08337774 -1.0625 8.125 C-1.07410156 7.03445312 -1.08570313 5.94390625 -1.09765625 4.8203125 C-1 2 -1 2 0 0 Z " fill="#9ABD7B" transform="translate(54,114)"/>
<path d="M0 0 C0.66 0 1.32 0 2 0 C2.061875 0.7425 2.12375 1.485 2.1875 2.25 C2.77675599 5.22551399 2.77675599 5.22551399 5.5625 7 C8 9 8 9 8.3125 11.75 C8.1578125 12.86375 8.1578125 12.86375 8 14 C7.6596875 13.0409375 7.6596875 13.0409375 7.3125 12.0625 C6.15983399 9.72567164 6.15983399 9.72567164 3.4375 9.375 C2.633125 9.25125 1.82875 9.1275 1 9 C-0.4783226 6.04335481 -0.06032783 3.25770263 0 0 Z " fill="#97BF75" transform="translate(71,113)"/>
<path d="M0 0 C0.33 0.66 0.66 1.32 1 2 C1.66 2 2.32 2 3 2 C3 2.66 3 3.32 3 4 C4.32 4.33 5.64 4.66 7 5 C7.33 4.34 7.66 3.68 8 3 C8 3.66 8 4.32 8 5 C8.66 5 9.32 5 10 5 C9.67 6.65 9.34 8.3 9 10 C8.34 9.67 7.68 9.34 7 9 C7 8.34 7 7.68 7 7 C4.36 6.67 1.72 6.34 -1 6 C-1.33 5.01 -1.66 4.02 -2 3 C-1.34 2.01 -0.68 1.02 0 0 Z " fill="#4A4D46" transform="translate(36,105)"/>
<path d="M0 0 C0.99 0.33 1.98 0.66 3 1 C2.875 2.8125 2.875 2.8125 2 5 C-2.88319518 8.146948 -2.88319518 8.146948 -6.375 7.6875 C-6.91125 7.460625 -7.4475 7.23375 -8 7 C-5.60490662 4.10067643 -3.68754757 3.49831724 0 3 C0 2.01 0 1.02 0 0 Z " fill="#0A1208" transform="translate(154,133)"/>
<path d="M0 0 C0.66 0.99 1.32 1.98 2 3 C2.99 2.67 3.98 2.34 5 2 C4.1875 3.9375 4.1875 3.9375 3 6 C2.01 6.33 1.02 6.66 0 7 C-0.33 7.66 -0.66 8.32 -1 9 C-1.66 6.36 -2.32 3.72 -3 1 C-2.01 0.67 -1.02 0.34 0 0 Z " fill="#0E1709" transform="translate(102,144)"/>
<path d="M0 0 C4.31392226 0.4793247 6.16569547 1.7457985 9 5 C8.34 5 7.68 5 7 5 C6.67 5.99 6.34 6.98 6 8 C5.34 8 4.68 8 4 8 C4 7.34 4 6.68 4 6 C3.01 5.67 2.02 5.34 1 5 C1.33 3.68 1.66 2.36 2 1 C1.34 0.67 0.68 0.34 0 0 Z " fill="#111612" transform="translate(64,138)"/>
<path d="M0 0 C1.134375 0.020625 2.26875 0.04125 3.4375 0.0625 C2.4475 0.5575 2.4475 0.5575 1.4375 1.0625 C1.4375 1.7225 1.4375 2.3825 1.4375 3.0625 C0.7775 3.0625 0.1175 3.0625 -0.5625 3.0625 C-0.5625 4.0525 -0.5625 5.0425 -0.5625 6.0625 C-3.5325 5.5675 -3.5325 5.5675 -6.5625 5.0625 C-4.14811644 0.07277397 -4.14811644 0.07277397 0 0 Z " fill="#040303" transform="translate(127.5625,139.9375)"/>
<path d="M0 0 C15.14887892 -0.92017937 15.14887892 -0.92017937 19.6875 1.3359375 C21.5625 3 21.5625 3 24 6 C21 6 21 6 18.83203125 4.046875 C15.07624671 1.33234935 12.20822818 1.33887937 7.6875 1.25 C6.94693359 1.22035156 6.20636719 1.19070312 5.44335938 1.16015625 C3.62947954 1.08994155 1.81473722 1.04264952 0 1 C0 0.67 0 0.34 0 0 Z " fill="#929F81" transform="translate(52,137)"/>
<path d="M0 0 C3.17106439 -0.08808512 5.99083491 -0.07470182 9 1 C9.33 1.66 9.66 2.32 10 3 C5.66579301 5.03165952 1.71403788 5.52060632 -3 6 C-3 5.34 -3 4.68 -3 4 C-2.01 3.67 -1.02 3.34 0 3 C0 2.01 0 1.02 0 0 Z " fill="#6B6A6B" transform="translate(190,130)"/>
<path d="M0 0 C0.99 0.99 1.98 1.98 3 3 C2.25 5.4375 2.25 5.4375 1 8 C-1.125 8.8125 -1.125 8.8125 -3 9 C-2.5020163 5.26512223 -2.12508244 3.18762365 0 0 Z " fill="#98B971" transform="translate(140,124)"/>
<path d="M0 0 C0 3.63 0 7.26 0 11 C-0.66 10.67 -1.32 10.34 -2 10 C-1.67 7.03 -1.34 4.06 -1 1 C-1.66 1 -2.32 1 -3 1 C-3.33 1.99 -3.66 2.98 -4 4 C-4.33 3.34 -4.66 2.68 -5 2 C-7.02463255 1.34786708 -7.02463255 1.34786708 -9 1 C-6.04335481 -0.4783226 -3.25770263 -0.06032783 0 0 Z " fill="#8C8B8B" transform="translate(82,85)"/>
<path d="M0 0 C0.99 0.66 1.98 1.32 3 2 C3 2.99 3 3.98 3 5 C4.65 5.33 6.3 5.66 8 6 C5.75804887 7.36118461 4.52173238 8.06138028 1.875 7.75 C0 7 0 7 -2 5 C-1.34 3.35 -0.68 1.7 0 0 Z " fill="#767477" transform="translate(189,105)"/>
<path d="M0 0 C-0.33 1.32 -0.66 2.64 -1 4 C-3.97 4 -6.94 4 -10 4 C-10 3.34 -10 2.68 -10 2 C-6.38026598 0.68373308 -3.90432869 0 0 0 Z " fill="#8AAE6B" transform="translate(170,128)"/>
<path d="M0 0 C0.66 0.33 1.32 0.66 2 1 C2.05386629 3.12472576 2.09273071 5.24983652 2.125 7.375 C2.14820313 8.55835937 2.17140625 9.74171875 2.1953125 10.9609375 C2 14 2 14 0 16 C-2.38825352 12.35570204 -1.94295451 9.9306564 -1.125 5.75 C-0.92132813 4.67234375 -0.71765625 3.5946875 -0.5078125 2.484375 C-0.34023438 1.66453125 -0.17265625 0.8446875 0 0 Z " fill="#0E240B" transform="translate(52,115)"/>
<path d="M0 0 C1.85776765 3.13498292 2.20140476 5.37471432 2 9 C-0.31 9 -2.62 9 -5 9 C-5 6.36 -5 3.72 -5 1 C-3 3 -3 3 -3 7 C-2.34 7 -1.68 7 -1 7 C-0.67 4.69 -0.34 2.38 0 0 Z " fill="#9C9B9B" transform="translate(63,61)"/>
<path d="M0 0 C1.32 0.33 2.64 0.66 4 1 C4 1.66 4 2.32 4 3 C4.66 3 5.32 3 6 3 C6.33 4.32 6.66 5.64 7 7 C5.68 7.33 4.36 7.66 3 8 C3.66 7.67 4.32 7.34 5 7 C5 6.34 5 5.68 5 5 C3.02 5.99 3.02 5.99 1 7 C0.67 4.69 0.34 2.38 0 0 Z " fill="#060C05" transform="translate(139,150)"/>
<path d="M0 0 C0.66 0 1.32 0 2 0 C1.57388649 1.75280733 1.13360733 3.50217435 0.6875 5.25 C0.44386719 6.22453125 0.20023438 7.1990625 -0.05078125 8.203125 C-0.99652356 10.98975665 -2.10708713 12.77304368 -4 15 C-3.88490339 13.58249437 -3.75746342 12.16598831 -3.625 10.75 C-3.55539063 9.96109375 -3.48578125 9.1721875 -3.4140625 8.359375 C-2.98158042 5.89504313 -2.21605654 4.1721926 -1 2 C-0.67 1.34 -0.34 0.68 0 0 Z " fill="#0C1B05" transform="translate(141,114)"/>
<path d="M0 0 C0.66 0 1.32 0 2 0 C2.66 4.62 3.32 9.24 4 14 C3.34 14 2.68 14 2 14 C2 11.69 2 9.38 2 7 C1.01 6.67 0.02 6.34 -1 6 C-0.67 4.02 -0.34 2.04 0 0 Z " fill="#858382" transform="translate(173,77)"/>
<path d="M0 0 C0.66 0.33 1.32 0.66 2 1 C2.125 8.75 2.125 8.75 1 11 C0.34 11 -0.32 11 -1 11 C-1.33 11.66 -1.66 12.32 -2 13 C-2.66 12.67 -3.32 12.34 -4 12 C-4 11.34 -4 10.68 -4 10 C-3.01 9.67 -2.02 9.34 -1 9 C-1.020625 7.88625 -1.04125 6.7725 -1.0625 5.625 C-1 2 -1 2 0 0 Z " fill="#807F80" transform="translate(98,34)"/>
<path d="M0 0 C0.99 0.66 1.98 1.32 3 2 C2.19185349 3.33597652 1.37836819 4.668725 0.5625 6 C0.11003906 6.7425 -0.34242187 7.485 -0.80859375 8.25 C-1.20175781 8.8275 -1.59492187 9.405 -2 10 C-2.33 10 -2.66 10 -3 10 C-3.36923077 4.58461538 -3.36923077 4.58461538 -1.5 1.625 C-1.005 1.08875 -0.51 0.5525 0 0 Z " fill="#070E04" transform="translate(116,164)"/>
<path d="M0 0 C0.66 0 1.32 0 2 0 C2 3.63 2 7.26 2 11 C0.68 11 -0.64 11 -2 11 C-1.34 10.67 -0.68 10.34 0 10 C0 6.7 0 3.4 0 0 Z " fill="#18270C" transform="translate(106,128)"/>
<path d="M0 0 C2.64 0.33 5.28 0.66 8 1 C3.34931642 4.72054686 -0.16082973 4 -6 4 C-6 3.67 -6 3.34 -6 3 C-4.35 3 -2.7 3 -1 3 C-0.67 2.01 -0.34 1.02 0 0 Z " fill="#040E02" transform="translate(42,131)"/>
<path d="M0 0 C-0.33 1.32 -0.66 2.64 -1 4 C-2.98 4 -4.96 4 -7 4 C-6.6875 2.0625 -6.6875 2.0625 -6 0 C-3 -1 -3 -1 0 0 Z " fill="#383937" transform="translate(147,168)"/>
<path d="M0 0 C4.75 0.75 4.75 0.75 7 3 C7 3.99 7 4.98 7 6 C8.32 6.33 9.64 6.66 11 7 C10.67 7.99 10.34 8.98 10 10 C9.67 9.34 9.34 8.68 9 8 C8.01 7.67 7.02 7.34 6 7 C6 6.01 6 5.02 6 4 C4.68 3.67 3.36 3.34 2 3 C2 2.34 2 1.68 2 1 C1.34 0.67 0.68 0.34 0 0 Z " fill="#6A696B" transform="translate(45,140)"/>
<path d="M0 0 C0 0.66 0 1.32 0 2 C-2.31 2.66 -4.62 3.32 -7 4 C-7.66 2.68 -8.32 1.36 -9 0 C-5.93109813 -1.53445094 -3.29905734 -0.54984289 0 0 Z " fill="#061701" transform="translate(184,125)"/>
<path d="M0 0 C1.79240663 0.11389875 3.58394835 0.24147687 5.375 0.375 C6.87160156 0.47941406 6.87160156 0.47941406 8.3984375 0.5859375 C11 1 11 1 13 3 C12 4 12 4 8.9375 4.0625 C7.968125 4.041875 6.99875 4.02125 6 4 C6 3.67 6 3.34 6 3 C3.03 2.505 3.03 2.505 0 2 C0 1.34 0 0.68 0 0 Z " fill="#5E5E5E" transform="translate(201,124)"/>
<path d="M0 0 C0.66 0 1.32 0 2 0 C2.33 1.65 2.66 3.3 3 5 C2.01 5.33 1.02 5.66 0 6 C-0.33 6.66 -0.66 7.32 -1 8 C-1.99 7.34 -2.98 6.68 -4 6 C-3.34 6 -2.68 6 -2 6 C-2 5.34 -2 4.68 -2 4 C-2.66 3.34 -3.32 2.68 -4 2 C-2.68 2 -1.36 2 0 2 C0 1.34 0 0.68 0 0 Z " fill="#484647" transform="translate(116,16)"/>
<path d="M0 0 C1 3 1 3 0.00390625 5.04296875 C-0.47175781 5.75066406 -0.94742188 6.45835937 -1.4375 7.1875 C-1.91058594 7.90292969 -2.38367188 8.61835938 -2.87109375 9.35546875 C-3.24363281 9.89816406 -3.61617188 10.44085938 -4 11 C-4.99 10.67 -5.98 10.34 -7 10 C-6.21625 9.0925 -5.4325 8.185 -4.625 7.25 C-2.69947504 4.94809764 -1.17794259 2.78422793 0 0 Z " fill="#2E2F2D" transform="translate(81,151)"/>
<path d="M0 0 C-1.28813342 0.83878455 -2.58063256 1.67086783 -3.875 2.5 C-4.59429687 2.9640625 -5.31359375 3.428125 -6.0546875 3.90625 C-8 5 -8 5 -10 5 C-10 4.01 -10 3.02 -10 2 C-3.375 -1.125 -3.375 -1.125 0 0 Z " fill="#94AA80" transform="translate(110,140)"/>
<path d="M0 0 C0.33 0 0.66 0 1 0 C1 4.29 1 8.58 1 13 C0.01 12.67 -0.98 12.34 -2 12 C-1.34 8.04 -0.68 4.08 0 0 Z " fill="#A0B68A" transform="translate(89,119)"/>
<path d="M0 0 C2 3 2 3 1.625 5.6875 C1.41875 6.450625 1.2125 7.21375 1 8 C0.01 7.67 -0.98 7.34 -2 7 C-1.125 1.125 -1.125 1.125 0 0 Z " fill="#0B1F03" transform="translate(147,116)"/>
<path d="M0 0 C0.66 0.33 1.32 0.66 2 1 C1.34 4.96 0.68 8.92 0 13 C-2.09907691 8.80184617 -2.21812126 8.20805526 -1 4 C-0.67 3.34 -0.34 2.68 0 2 C-0.66 1.67 -1.32 1.34 -2 1 C-1.34 0.67 -0.68 0.34 0 0 Z " fill="#7FA158" transform="translate(56,112)"/>
<path d="M0 0 C0.66 0.33 1.32 0.66 2 1 C2 1.99 2 2.98 2 4 C2.99 4.66 3.98 5.32 5 6 C2.36 6.33 -0.28 6.66 -3 7 C-2.67 5.68 -2.34 4.36 -2 3 C-1.34 3 -0.68 3 0 3 C0 2.01 0 1.02 0 0 Z " fill="#605E5F" transform="translate(198,112)"/>
<path d="M0 0 C0.99 0.66 1.98 1.32 3 2 C2.34 3.32 1.68 4.64 1 6 C-0.32 5.67 -1.64 5.34 -3 5 C-3 4.01 -3 3.02 -3 2 C-2.01 1.34 -1.02 0.68 0 0 Z " fill="#0A1E04" transform="translate(115,114)"/>
<path d="M0 0 C0.66 0.66 1.32 1.32 2 2 C1.9765625 4.1640625 1.9765625 4.1640625 1.625 6.625 C1.51414063 7.44226562 1.40328125 8.25953125 1.2890625 9.1015625 C1.19367188 9.72804688 1.09828125 10.35453125 1 11 C2.32 11.33 3.64 11.66 5 12 C3.02 12.33 1.04 12.66 -1 13 C-1.33 12.34 -1.66 11.68 -2 11 C-1.34 11 -0.68 11 0 11 C0 8.03 0 5.06 0 2 C-0.66 1.67 -1.32 1.34 -2 1 C-1.34 0.67 -0.68 0.34 0 0 Z " fill="#6F6F6F" transform="translate(135,51)"/>
<path d="M0 0 C2.4375 0.125 2.4375 0.125 5 1 C6.3125 3.5625 6.3125 3.5625 7 6 C3.62496331 4.8141763 1.35277269 3.72426311 -1 1 C-0.67 0.67 -0.34 0.34 0 0 Z " fill="#7F7F7F" transform="translate(163,50)"/>
<path d="M0 0 C2.475 0.99 2.475 0.99 5 2 C2.377486 3.74834267 1.00515522 4.51529754 -2 5 C-2.66 4.67 -3.32 4.34 -4 4 C-4 3.01 -4 2.02 -4 1 C-2.68 1.33 -1.36 1.66 0 2 C0 1.34 0 0.68 0 0 Z " fill="#83AB62" transform="translate(58,127)"/>
<path d="M0 0 C2.64 0 5.28 0 8 0 C8.33 0.66 8.66 1.32 9 2 C5.52674819 3.1577506 2.63932552 3.06866652 -1 3 C-0.67 2.01 -0.34 1.02 0 0 Z " fill="#050404" transform="translate(13,123)"/>
<path d="M0 0 C2.475 0.99 2.475 0.99 5 2 C4.01 3.32 3.02 4.64 2 6 C1.01 5.67 0.02 5.34 -1 5 C-0.67 3.35 -0.34 1.7 0 0 Z " fill="#0C150E" transform="translate(74,136)"/>
<path d="M0 0 C4.67692308 1.47692308 4.67692308 1.47692308 6.3125 4.125 C6.539375 4.74375 6.76625 5.3625 7 6 C5.35 6 3.7 6 2 6 C1.33333333 4 0.66666667 2 0 0 Z " fill="#0A1001" transform="translate(156,130)"/>
<path d="M0 0 C-0.33 0.66 -0.66 1.32 -1 2 C-6.44927536 3.27536232 -6.44927536 3.27536232 -9 2 C-9 1.34 -9 0.68 -9 0 C-5.93109813 -1.53445094 -3.29905734 -0.54984289 0 0 Z " fill="#041701" transform="translate(184,117)"/>
<path d="M0 0 C1.4540625 0.0309375 1.4540625 0.0309375 2.9375 0.0625 C2.9375 0.7225 2.9375 1.3825 2.9375 2.0625 C1.2875 2.3925 -0.3625 2.7225 -2.0625 3.0625 C-2.3925 4.3825 -2.7225 5.7025 -3.0625 7.0625 C-3.44383299 5.0710944 -3.77575582 3.06970923 -4.0625 1.0625 C-3.0625 0.0625 -3.0625 0.0625 0 0 Z " fill="#8BAF73" transform="translate(147.0625,110.9375)"/>
<path d="M0 0 C1.98 0 3.96 0 6 0 C6 0.99 6 1.98 6 3 C4.02 3.99 4.02 3.99 2 5 C1.34 4.34 0.68 3.68 0 3 C0 2.01 0 1.02 0 0 Z " fill="#85A269" transform="translate(123,111)"/>
<path d="M0 0 C3 1 3 1 4 3 C3.34 3 2.68 3 2 3 C2 3.66 2 4.32 2 5 C2.66 5.66 3.32 6.32 4 7 C3.01 7.33 2.02 7.66 1 8 C0.34 7.67 -0.32 7.34 -1 7 C-0.67 4.69 -0.34 2.38 0 0 Z " fill="#444444" transform="translate(156,72)"/>
<path d="M0 0 C3.16115776 1.36983503 3.9927092 1.9890638 6 5 C8.05003955 6.19232613 8.05003955 6.19232613 10 7 C7.8125 7.3125 7.8125 7.3125 5 7 C2.1875 4.625 2.1875 4.625 0 2 C0 1.34 0 0.68 0 0 Z " fill="#9FB593" transform="translate(118,149)"/>
<path d="M0 0 C1.65 1.65 3.3 3.3 5 5 C4.443125 4.814375 3.88625 4.62875 3.3125 4.4375 C0.600867 3.92448835 -1.34371039 4.3359276 -4 5 C-2.68 3.35 -1.36 1.7 0 0 Z " fill="#112B09" transform="translate(61,114)"/>
<path d="M0 0 C0.99 0 1.98 0 3 0 C3 0.66 3 1.32 3 2 C3.99 2.33 4.98 2.66 6 3 C5.67 3.99 5.34 4.98 5 6 C3.35 5.67 1.7 5.34 0 5 C0 3.35 0 1.7 0 0 Z " fill="#84AC67" transform="translate(108,109)"/>
<path d="M0 0 C0.99 0.33 1.98 0.66 3 1 C2.34 2.65 1.68 4.3 1 6 C-0.65 6 -2.3 6 -4 6 C-3.0022242 3.00667261 -2.2477975 2.05233685 0 0 Z " fill="#0F0E0C" transform="translate(108,88)"/>
<path d="M0 0 C0.99 0.33 1.98 0.66 3 1 C3 1.99 3 2.98 3 4 C2.34 4 1.68 4 1 4 C0.67 4.99 0.34 5.98 0 7 C0 6.01 0 5.02 0 4 C-0.66 4 -1.32 4 -2 4 C-1.34 2.68 -0.68 1.36 0 0 Z " fill="#35302F" transform="translate(122,184)"/>
<path d="M0 0 C1.65 0 3.3 0 5 0 C5 1.65 5 3.3 5 5 C3.68 4.67 2.36 4.34 1 4 C0.67 2.68 0.34 1.36 0 0 Z " fill="#030403" transform="translate(143,163)"/>
<path d="M0 0 C4.75 0.75 4.75 0.75 7 3 C4.69 3.33 2.38 3.66 0 4 C0 2.68 0 1.36 0 0 Z " fill="#0A0513" transform="translate(116,157)"/>
<path d="M0 0 C2.35448165 2.55068845 2.98327924 3.71017358 3.1875 7.25 C3.125625 8.1575 3.06375 9.065 3 10 C2.34 10 1.68 10 1 10 C-0.60725635 6.78548731 -0.05748185 3.56387464 0 0 Z " fill="#010C00" transform="translate(113,152)"/>
<path d="M0 0 C2 1 2 1 2 1 Z M-5 1 C-3.35 1 -1.7 1 0 1 C-0.33 1.99 -0.66 2.98 -1 4 C-2.65 4.33 -4.3 4.66 -6 5 C-5.67 3.68 -5.34 2.36 -5 1 Z " fill="#020501" transform="translate(147,144)"/>
<path d="M0 0 C3.63 0.33 7.26 0.66 11 1 C10.67 2.65 10.34 4.3 10 6 C9.34 5.67 8.68 5.34 8 5 C8 4.34 8 3.68 8 3 C5.36 2.67 2.72 2.34 0 2 C0 1.34 0 0.68 0 0 Z " fill="#A09EA0" transform="translate(11,125)"/>
<path d="M0 0 C0 0.99 0 1.98 0 3 C-2.31 3 -4.62 3 -7 3 C-7 2.34 -7 1.68 -7 1 C-4.53721199 -0.231394 -2.7204945 -0.07159196 0 0 Z " fill="#94BB7B" transform="translate(184,111)"/>
<path d="M0 0 C1.65 0 3.3 0 5 0 C5 0.99 5 1.98 5 3 C4.34 3 3.68 3 3 3 C2.67 3.66 2.34 4.32 2 5 C1.01 5 0.02 5 -1 5 C-1 4.34 -1 3.68 -1 3 C-0.34 3 0.32 3 1 3 C0.67 2.01 0.34 1.02 0 0 Z " fill="#6C835B" transform="translate(94,111)"/>
<path d="M0 0 C0.33 0.99 0.66 1.98 1 3 C1.99 3 2.98 3 4 3 C3 5 3 5 0 7 C-0.99 5.68 -1.98 4.36 -3 3 C-2.01 2.01 -1.02 1.02 0 0 Z " fill="#222120" transform="translate(174,88)"/>
<path d="M0 0 C0.99 0 1.98 0 3 0 C3 0.99 3 1.98 3 3 C2.34 3 1.68 3 1 3 C1 5.31 1 7.62 1 10 C1.66 10.33 2.32 10.66 3 11 C2.01 11 1.02 11 0 11 C0 7.37 0 3.74 0 0 Z " fill="#949494" transform="translate(70,53)"/>
<path d="M0 0 C0.66 0 1.32 0 2 0 C2.33 1.65 2.66 3.3 3 5 C2.34 5 1.68 5 1 5 C0.67 5.66 0.34 6.32 0 7 C-0.38133299 5.0085944 -0.71325582 3.00720923 -1 1 C-0.67 0.67 -0.34 0.34 0 0 Z " fill="#0B1608" transform="translate(109,160)"/>
<path d="M0 0 C0.66 0.66 1.32 1.32 2 2 C1.67 2.66 1.34 3.32 1 4 C1.99 4.33 2.98 4.66 4 5 C2.35 5.33 0.7 5.66 -1 6 C-1.33 5.34 -1.66 4.68 -2 4 C-1.0625 1.875 -1.0625 1.875 0 0 Z " fill="#030402" transform="translate(127,146)"/>
<path d="M0 0 C2.97 0.495 2.97 0.495 6 1 C5.34 1.66 4.68 2.32 4 3 C3.34 3 2.68 3 2 3 C1.01 4.485 1.01 4.485 0 6 C-0.66 6 -1.32 6 -2 6 C-1.34 4.02 -0.68 2.04 0 0 Z " fill="#0F2B03" transform="translate(143,126)"/>
<path d="M0 0 C0.99 0.33 1.98 0.66 3 1 C3.33 2.98 3.66 4.96 4 7 C3.01 6.67 2.02 6.34 1 6 C-0.1875 3.4375 -0.1875 3.4375 -1 1 C-0.67 0.67 -0.34 0.34 0 0 Z " fill="#91B966" transform="translate(75,122)"/>
<path d="M0 0 C-0.33 1.65 -0.66 3.3 -1 5 C-2.65 5.33 -4.3 5.66 -6 6 C-4.90218919 2.70656758 -3.7827394 0 0 0 Z " fill="#071806" transform="translate(123,120)"/>
<path d="M0 0 C3.3 0.33 6.6 0.66 10 1 C8 3 8 3 4.875 3.125 C3.92625 3.08375 2.9775 3.0425 2 3 C2 2.34 2 1.68 2 1 C1.34 0.67 0.68 0.34 0 0 Z " fill="#202621" transform="translate(72,106)"/>
<path d="M0 0 C0.66 0 1.32 0 2 0 C2 0.99 2 1.98 2 3 C2.66 3.33 3.32 3.66 4 4 C2.02 4.66 0.04 5.32 -2 6 C-1.34 4.02 -0.68 2.04 0 0 Z " fill="#141414" transform="translate(57,54)"/>
<path d="M0 0 C0.99 0.66 1.98 1.32 3 2 C2.67 2.99 2.34 3.98 2 5 C1.01 5.33 0.02 5.66 -1 6 C-1.625 4.125 -1.625 4.125 -2 2 C-1.34 1.34 -0.68 0.68 0 0 Z " fill="#050502" transform="translate(101,189)"/>
<path d="M0 0 C2.31 0.66 4.62 1.32 7 2 C6.67 2.66 6.34 3.32 6 4 C3.9375 4.625 3.9375 4.625 2 5 C1.34 3.35 0.68 1.7 0 0 Z " fill="#1A2E13" transform="translate(136,139)"/>
<path d="M0 0 C1.65 0 3.3 0 5 0 C5.33 0.99 5.66 1.98 6 3 C3.69 2.67 1.38 2.34 -1 2 C-0.67 1.34 -0.34 0.68 0 0 Z " fill="#97BB77" transform="translate(178,128)"/>
<path d="M0 0 C1.5 1.375 1.5 1.375 3 3 C3 3.66 3 4.32 3 5 C1.35 5 -0.3 5 -2 5 C-2 4.01 -2 3.02 -2 2 C-1.34 2 -0.68 2 0 2 C0 1.34 0 0.68 0 0 Z " fill="#98B580" transform="translate(153,127)"/>
<path d="M0 0 C0.99 0 1.98 0 3 0 C3.33 2.31 3.66 4.62 4 7 C3.34 7 2.68 7 2 7 C0.5393715 4.35261084 0 3.10551666 0 0 Z " fill="#0F2C06" transform="translate(153,123)"/>
<path d="M0 0 C1.32 0.99 2.64 1.98 4 3 C3.67 4.32 3.34 5.64 3 7 C2.01 6.67 1.02 6.34 0 6 C0 4 0 2 0 0 Z " fill="#132704" transform="translate(72,122)"/>
<path d="M0 0 C0.99 0.495 0.99 0.495 2 1 C1.67 1.66 1.34 2.32 1 3 C2.32 3.66 3.64 4.32 5 5 C4.01 5.66 3.02 6.32 2 7 C1.34 6.67 0.68 6.34 0 6 C0 4.02 0 2.04 0 0 Z " fill="#112508" transform="translate(159,119)"/>
<path d="M0 0 C0.99 0 1.98 0 3 0 C3 2.64 3 5.28 3 8 C1 6.625 1 6.625 -1 5 C-1 4.34 -1 3.68 -1 3 C-0.34 3 0.32 3 1 3 C0.67 2.01 0.34 1.02 0 0 Z " fill="#274318" transform="translate(76,114)"/>
<path d="M0 0 C2.64 0 5.28 0 8 0 C7.01 0.495 7.01 0.495 6 1 C5.67 1.66 5.34 2.32 5 3 C4.01 2.67 3.02 2.34 2 2 C2 2.66 2 3.32 2 4 C1.34 4 0.68 4 0 4 C0 2.68 0 1.36 0 0 Z " fill="#809E65" transform="translate(171,111)"/>
<path d="M0 0 C3.125 -0.1875 3.125 -0.1875 6 0 C5.67 1.65 5.34 3.3 5 5 C2.69 4.34 0.38 3.68 -2 3 C-1.34 2.01 -0.68 1.02 0 0 Z " fill="#10160D" transform="translate(125,108)"/>
<path d="M0 0 C1.65 0.33 3.3 0.66 5 1 C3.6875 2.5 3.6875 2.5 2 4 C1.01 4 0.02 4 -1 4 C-0.67 2.68 -0.34 1.36 0 0 Z " fill="#444341" transform="translate(83,65)"/>
</svg>
